<mxfile host="app.diagrams.net" modified="2020-09-01T19:50:44.915Z" agent="5.0 (Macintosh; Intel Mac OS X 10_15_6) AppleWebKit/537.36 (KHTML, like Gecko) Chrome/84.0.4147.135 Safari/537.36" etag="uVBbzy0AZ7z294yKSVZo" version="13.6.5" type="github" pages="2">
  <diagram name="v2" id="tqLJBO_BbukvwmhvbSCI">
    <mxGraphModel dx="1647" dy="1312" grid="0" gridSize="8" guides="1" tooltips="1" connect="1" arrows="1" fold="1" page="1" pageScale="1" pageWidth="850" pageHeight="1100" math="0" shadow="0">
      <root>
        <mxCell id="tmh-D557QrPGJzhV4SVf-0" />
        <mxCell id="tmh-D557QrPGJzhV4SVf-1" parent="tmh-D557QrPGJzhV4SVf-0" />
        <mxCell id="xcyX9j9_3t78MYzINzkI-0" value="PHYSICAL HOST" style="rounded=0;whiteSpace=wrap;html=1;verticalAlign=bottom;align=left;fontStyle=1" parent="tmh-D557QrPGJzhV4SVf-1" vertex="1">
          <mxGeometry x="95" y="687" width="678" height="132" as="geometry" />
        </mxCell>
        <mxCell id="xcyX9j9_3t78MYzINzkI-14" value="VMWare hypervisor" style="rounded=0;whiteSpace=wrap;html=1;dashed=1;align=left;fontStyle=1" parent="tmh-D557QrPGJzhV4SVf-1" vertex="1">
          <mxGeometry x="101" y="737" width="666" height="40" as="geometry" />
        </mxCell>
        <mxCell id="xcyX9j9_3t78MYzINzkI-17" value="&lt;b&gt;Extraction&lt;br style=&quot;font-size: 12px&quot;&gt;&amp;amp;&lt;br style=&quot;font-size: 12px&quot;&gt;Anonymization&lt;/b&gt;&lt;br&gt;&lt;br&gt;" style="rounded=0;whiteSpace=wrap;html=1;strokeColor=#36393d;fontSize=12;align=center;fillColor=#ffcccc;verticalAlign=top;" parent="tmh-D557QrPGJzhV4SVf-1" vertex="1">
          <mxGeometry x="105" y="584.18" width="96" height="160" as="geometry" />
        </mxCell>
        <mxCell id="xcyX9j9_3t78MYzINzkI-19" value="&lt;b&gt;Analysis&amp;nbsp;&lt;/b&gt;" style="rounded=0;whiteSpace=wrap;html=1;strokeColor=#36393d;fontSize=12;align=center;fillColor=#cdeb8b;verticalAlign=top;" parent="tmh-D557QrPGJzhV4SVf-1" vertex="1">
          <mxGeometry x="631" y="587" width="129" height="160" as="geometry" />
        </mxCell>
        <mxCell id="xcyX9j9_3t78MYzINzkI-20" value="&lt;b&gt;&amp;nbsp;Storage &amp;amp; Database&lt;/b&gt;" style="rounded=0;whiteSpace=wrap;html=1;strokeColor=#36393d;fontSize=12;align=left;fillColor=#ffcc99;horizontal=1;verticalAlign=top;" parent="tmh-D557QrPGJzhV4SVf-1" vertex="1">
          <mxGeometry x="234" y="515" width="371" height="232" as="geometry" />
        </mxCell>
        <mxCell id="xcyX9j9_3t78MYzINzkI-21" value="ZFS" style="rounded=0;whiteSpace=wrap;html=1;strokeColor=#36393d;fontSize=12;align=left;fillColor=#FFF4C3;verticalAlign=top;" parent="tmh-D557QrPGJzhV4SVf-1" vertex="1">
          <mxGeometry x="283" y="641" width="316" height="88" as="geometry" />
        </mxCell>
        <mxCell id="xcyX9j9_3t78MYzINzkI-22" value="ZPOOL - RAIDZ-2/3 - DATA" style="rounded=0;whiteSpace=wrap;html=1;strokeColor=#36393d;fontSize=12;align=center;fillColor=#FFF4C3;" parent="tmh-D557QrPGJzhV4SVf-1" vertex="1">
          <mxGeometry x="386" y="675" width="189" height="44" as="geometry" />
        </mxCell>
        <mxCell id="xcyX9j9_3t78MYzINzkI-23" value="L2ARC + ZIL" style="rounded=0;whiteSpace=wrap;html=1;strokeColor=#36393d;fontSize=12;align=center;fillColor=#FFF4C3;" parent="tmh-D557QrPGJzhV4SVf-1" vertex="1">
          <mxGeometry x="298" y="675" width="88" height="44" as="geometry" />
        </mxCell>
        <mxCell id="xcyX9j9_3t78MYzINzkI-29" style="edgeStyle=orthogonalEdgeStyle;rounded=0;orthogonalLoop=1;jettySize=auto;html=1;exitX=0.5;exitY=1;exitDx=0;exitDy=0;entryX=0.25;entryY=0;entryDx=0;entryDy=0;fontSize=10;" parent="tmh-D557QrPGJzhV4SVf-1" source="xcyX9j9_3t78MYzINzkI-30" target="xcyX9j9_3t78MYzINzkI-22" edge="1">
          <mxGeometry relative="1" as="geometry" />
        </mxCell>
        <mxCell id="xcyX9j9_3t78MYzINzkI-30" value="Dataset - PG-DATA" style="rounded=1;whiteSpace=wrap;html=1;strokeColor=#000000;fillColor=#FFF4C3;fontSize=10;align=center;" parent="tmh-D557QrPGJzhV4SVf-1" vertex="1">
          <mxGeometry x="310" y="595" width="91" height="32" as="geometry" />
        </mxCell>
        <mxCell id="xcyX9j9_3t78MYzINzkI-31" style="edgeStyle=orthogonalEdgeStyle;rounded=0;orthogonalLoop=1;jettySize=auto;html=1;fontSize=10;" parent="tmh-D557QrPGJzhV4SVf-1" source="xcyX9j9_3t78MYzINzkI-32" target="xcyX9j9_3t78MYzINzkI-22" edge="1">
          <mxGeometry relative="1" as="geometry" />
        </mxCell>
        <mxCell id="xcyX9j9_3t78MYzINzkI-32" value="Dataset - PG-WAL" style="rounded=1;whiteSpace=wrap;html=1;strokeColor=#000000;fillColor=#FFF4C3;fontSize=10;align=center;" parent="tmh-D557QrPGJzhV4SVf-1" vertex="1">
          <mxGeometry x="405" y="595" width="91" height="32" as="geometry" />
        </mxCell>
        <mxCell id="xcyX9j9_3t78MYzINzkI-33" style="edgeStyle=orthogonalEdgeStyle;rounded=0;orthogonalLoop=1;jettySize=auto;html=1;entryX=0.75;entryY=0;entryDx=0;entryDy=0;fontSize=10;" parent="tmh-D557QrPGJzhV4SVf-1" source="xcyX9j9_3t78MYzINzkI-34" target="xcyX9j9_3t78MYzINzkI-22" edge="1">
          <mxGeometry relative="1" as="geometry" />
        </mxCell>
        <mxCell id="xcyX9j9_3t78MYzINzkI-34" value="Dataset - BINARY" style="rounded=1;whiteSpace=wrap;html=1;strokeColor=#000000;fillColor=#FFF4C3;fontSize=10;align=center;" parent="tmh-D557QrPGJzhV4SVf-1" vertex="1">
          <mxGeometry x="501" y="595" width="91" height="32" as="geometry" />
        </mxCell>
        <mxCell id="xcyX9j9_3t78MYzINzkI-35" value="" style="shape=image;verticalLabelPosition=bottom;labelBackgroundColor=#ffffff;verticalAlign=top;aspect=fixed;imageAspect=0;image=https://seeklogo.com/images/M/minio-logo-4B2D780928-seeklogo.com.png;" parent="tmh-D557QrPGJzhV4SVf-1" vertex="1">
          <mxGeometry x="506.85" y="529" width="76.15" height="33" as="geometry" />
        </mxCell>
        <mxCell id="xcyX9j9_3t78MYzINzkI-36" value="" style="shape=image;verticalLabelPosition=bottom;labelBackgroundColor=#ffffff;verticalAlign=top;aspect=fixed;imageAspect=0;image=https://logos-download.com/wp-content/uploads/2016/10/PostgreSQL_logo_Postgre_SQL.png;" parent="tmh-D557QrPGJzhV4SVf-1" vertex="1">
          <mxGeometry x="317" y="555.83" width="171.27" height="26.35" as="geometry" />
        </mxCell>
        <mxCell id="xcyX9j9_3t78MYzINzkI-38" value="RED-ZONE VLAN" style="text;html=1;strokeColor=none;fillColor=none;align=center;verticalAlign=top;whiteSpace=wrap;rounded=0;fontSize=12;fontStyle=1" parent="tmh-D557QrPGJzhV4SVf-1" vertex="1">
          <mxGeometry x="91" y="551" width="120" height="26" as="geometry" />
        </mxCell>
        <mxCell id="xcyX9j9_3t78MYzINzkI-40" value="ORANGE-ZONE VLAN" style="text;html=1;strokeColor=none;fillColor=none;align=center;verticalAlign=top;whiteSpace=wrap;rounded=0;fontSize=12;fontStyle=1" parent="tmh-D557QrPGJzhV4SVf-1" vertex="1">
          <mxGeometry x="335" y="447" width="169" height="45" as="geometry" />
        </mxCell>
        <mxCell id="xcyX9j9_3t78MYzINzkI-41" value="GREEN-ZONE VLAN&lt;br&gt;&lt;span style=&quot;font-weight: normal&quot;&gt;RTSS &lt;font style=&quot;font-size: 10px&quot;&gt;&lt;br&gt;&lt;/font&gt;&lt;/span&gt;" style="text;html=1;strokeColor=none;fillColor=none;align=center;verticalAlign=top;whiteSpace=wrap;rounded=0;fontSize=12;fontStyle=1" parent="tmh-D557QrPGJzhV4SVf-1" vertex="1">
          <mxGeometry x="636" y="495" width="120" height="45" as="geometry" />
        </mxCell>
        <mxCell id="xcyX9j9_3t78MYzINzkI-42" value="" style="shape=image;html=1;verticalAlign=top;verticalLabelPosition=bottom;labelBackgroundColor=#ffffff;imageAspect=0;aspect=fixed;image=https://cdn2.iconfinder.com/data/icons/stilllife/48x48/filesystems/gnome-fs-nfs.png;strokeColor=#000000;fillColor=#FFF4C3;fontSize=9;align=center;" parent="tmh-D557QrPGJzhV4SVf-1" vertex="1">
          <mxGeometry x="535" y="557.8299999999999" width="32" height="32" as="geometry" />
        </mxCell>
        <mxCell id="xcyX9j9_3t78MYzINzkI-43" value="CODA API" style="rounded=1;whiteSpace=wrap;html=1;strokeColor=#000000;fillColor=#FFF4C3;fontSize=10;align=center;" parent="tmh-D557QrPGJzhV4SVf-1" vertex="1">
          <mxGeometry x="645" y="656" width="90" height="24" as="geometry" />
        </mxCell>
        <mxCell id="xcyX9j9_3t78MYzINzkI-47" value="" style="html=1;dashed=0;whitespace=wrap;fillColor=#2875E2;strokeColor=#ffffff;points=[[0.005,0.63,0],[0.1,0.2,0],[0.9,0.2,0],[0.5,0,0],[0.995,0.63,0],[0.72,0.99,0],[0.5,1,0],[0.28,0.99,0]];shape=mxgraph.kubernetes.icon;prIcon=kubelet;fontSize=12;align=center;" parent="tmh-D557QrPGJzhV4SVf-1" vertex="1">
          <mxGeometry x="730" y="649.49" width="40" height="33" as="geometry" />
        </mxCell>
        <mxCell id="xcyX9j9_3t78MYzINzkI-49" value="&lt;b&gt;Infrastructure services&lt;/b&gt;" style="rounded=0;whiteSpace=wrap;html=1;strokeColor=#36393d;fontSize=12;align=center;fillColor=#cdeb8b;verticalAlign=top;" parent="tmh-D557QrPGJzhV4SVf-1" vertex="1">
          <mxGeometry x="631.5" y="78" width="129" height="263" as="geometry" />
        </mxCell>
        <mxCell id="xcyX9j9_3t78MYzINzkI-50" value="Containers registry" style="rounded=1;whiteSpace=wrap;html=1;strokeColor=#000000;fillColor=#FFF4C3;fontSize=10;align=center;" parent="tmh-D557QrPGJzhV4SVf-1" vertex="1">
          <mxGeometry x="645.5" y="169" width="106" height="24" as="geometry" />
        </mxCell>
        <mxCell id="xcyX9j9_3t78MYzINzkI-51" value="FreeIPA" style="rounded=1;whiteSpace=wrap;html=1;strokeColor=#000000;fillColor=#FFF4C3;fontSize=10;align=center;" parent="tmh-D557QrPGJzhV4SVf-1" vertex="1">
          <mxGeometry x="647.5" y="206" width="102" height="22.5" as="geometry" />
        </mxCell>
        <mxCell id="xcyX9j9_3t78MYzINzkI-52" value="K8s control plane" style="rounded=1;whiteSpace=wrap;html=1;strokeColor=#000000;fillColor=#FFF4C3;fontSize=10;align=center;" parent="tmh-D557QrPGJzhV4SVf-1" vertex="1">
          <mxGeometry x="645.5" y="134" width="104" height="24" as="geometry" />
        </mxCell>
        <mxCell id="xcyX9j9_3t78MYzINzkI-53" value="VALERIA&lt;br&gt;&lt;span style=&quot;font-weight: normal&quot;&gt;Services VM&lt;br&gt;(on RTSS network)&lt;/span&gt;" style="text;html=1;strokeColor=none;fillColor=none;align=center;verticalAlign=top;whiteSpace=wrap;rounded=0;fontSize=12;fontStyle=1" parent="tmh-D557QrPGJzhV4SVf-1" vertex="1">
          <mxGeometry x="614" y="22" width="169" height="56" as="geometry" />
        </mxCell>
        <mxCell id="xcyX9j9_3t78MYzINzkI-54" value="Keycloak" style="rounded=1;whiteSpace=wrap;html=1;strokeColor=#000000;fillColor=#FFF4C3;fontSize=10;align=center;" parent="tmh-D557QrPGJzhV4SVf-1" vertex="1">
          <mxGeometry x="649.5" y="242" width="102" height="22.5" as="geometry" />
        </mxCell>
        <mxCell id="xcyX9j9_3t78MYzINzkI-55" value="Web server" style="rounded=1;whiteSpace=wrap;html=1;strokeColor=#000000;fillColor=#FFF4C3;fontSize=10;align=center;" parent="tmh-D557QrPGJzhV4SVf-1" vertex="1">
          <mxGeometry x="649.5" y="276" width="102" height="22.5" as="geometry" />
        </mxCell>
        <mxCell id="IyH2yJy_CdPDOLWACVlW-20" style="edgeStyle=orthogonalEdgeStyle;rounded=0;orthogonalLoop=1;jettySize=auto;html=1;exitX=0.5;exitY=1;exitDx=0;exitDy=0;" parent="tmh-D557QrPGJzhV4SVf-1" source="xcyX9j9_3t78MYzINzkI-57" target="xcyX9j9_3t78MYzINzkI-58" edge="1">
          <mxGeometry relative="1" as="geometry" />
        </mxCell>
        <mxCell id="xcyX9j9_3t78MYzINzkI-57" value="GitHub" style="rounded=1;whiteSpace=wrap;html=1;strokeColor=#000000;fillColor=#FFF4C3;fontSize=10;align=center;" parent="tmh-D557QrPGJzhV4SVf-1" vertex="1">
          <mxGeometry x="183" y="136" width="104" height="24" as="geometry" />
        </mxCell>
        <mxCell id="HNsxZ0i6CEFMTYmWByBa-2" style="edgeStyle=orthogonalEdgeStyle;rounded=0;orthogonalLoop=1;jettySize=auto;html=1;exitX=1;exitY=0.5;exitDx=0;exitDy=0;entryX=0;entryY=0.75;entryDx=0;entryDy=0;startArrow=none;startFill=0;endArrow=classic;endFill=1;" parent="tmh-D557QrPGJzhV4SVf-1" source="xcyX9j9_3t78MYzINzkI-58" target="xcyX9j9_3t78MYzINzkI-50" edge="1">
          <mxGeometry relative="1" as="geometry" />
        </mxCell>
        <mxCell id="IyH2yJy_CdPDOLWACVlW-21" value="build Docker image &lt;br&gt;and push to registry" style="edgeLabel;html=1;align=center;verticalAlign=middle;resizable=0;points=[];" parent="HNsxZ0i6CEFMTYmWByBa-2" vertex="1" connectable="0">
          <mxGeometry x="-0.2506" y="-1" relative="1" as="geometry">
            <mxPoint x="95" y="-1" as="offset" />
          </mxGeometry>
        </mxCell>
        <mxCell id="xcyX9j9_3t78MYzINzkI-58" value="Travis-CI" style="rounded=1;whiteSpace=wrap;html=1;strokeColor=#000000;fillColor=#FFF4C3;fontSize=10;align=center;" parent="tmh-D557QrPGJzhV4SVf-1" vertex="1">
          <mxGeometry x="183" y="175" width="104" height="24" as="geometry" />
        </mxCell>
        <mxCell id="xcyX9j9_3t78MYzINzkI-59" value="" style="shape=cylinder2;whiteSpace=wrap;html=1;boundedLbl=1;backgroundOutline=1;size=5.170000000000073;align=left;" parent="tmh-D557QrPGJzhV4SVf-1" vertex="1">
          <mxGeometry x="33" y="635.41" width="40" height="39.17" as="geometry" />
        </mxCell>
        <mxCell id="xcyX9j9_3t78MYzINzkI-62" value="" style="endArrow=classic;html=1;entryX=0.01;entryY=0.45;entryDx=0;entryDy=0;entryPerimeter=0;startArrow=none;startFill=0;" parent="tmh-D557QrPGJzhV4SVf-1" source="xcyX9j9_3t78MYzINzkI-59" target="xcyX9j9_3t78MYzINzkI-17" edge="1">
          <mxGeometry width="50" height="50" relative="1" as="geometry">
            <mxPoint x="600" y="675" as="sourcePoint" />
            <mxPoint x="650" y="625" as="targetPoint" />
          </mxGeometry>
        </mxCell>
        <mxCell id="xcyX9j9_3t78MYzINzkI-63" value="Data at&amp;nbsp;&lt;br&gt;site" style="text;html=1;resizable=0;autosize=1;align=center;verticalAlign=middle;points=[];fillColor=none;strokeColor=none;rounded=0;" parent="tmh-D557QrPGJzhV4SVf-1" vertex="1">
          <mxGeometry x="25" y="674" width="52" height="32" as="geometry" />
        </mxCell>
        <mxCell id="xcyX9j9_3t78MYzINzkI-66" value="" style="endArrow=none;dashed=1;html=1;" parent="tmh-D557QrPGJzhV4SVf-1" edge="1">
          <mxGeometry width="50" height="50" relative="1" as="geometry">
            <mxPoint x="26" y="436" as="sourcePoint" />
            <mxPoint x="814" y="436" as="targetPoint" />
          </mxGeometry>
        </mxCell>
        <mxCell id="xcyX9j9_3t78MYzINzkI-67" value="participating CODA19 site" style="text;html=1;resizable=0;autosize=1;align=center;verticalAlign=middle;points=[];fillColor=none;strokeColor=none;rounded=0;" parent="tmh-D557QrPGJzhV4SVf-1" vertex="1">
          <mxGeometry x="45" y="439" width="148" height="18" as="geometry" />
        </mxCell>
        <mxCell id="xcyX9j9_3t78MYzINzkI-68" value="VALERIA&lt;br&gt;Université Laval" style="text;html=1;resizable=0;autosize=1;align=center;verticalAlign=middle;points=[];fillColor=none;strokeColor=none;rounded=0;" parent="tmh-D557QrPGJzhV4SVf-1" vertex="1">
          <mxGeometry x="454" y="15" width="95" height="32" as="geometry" />
        </mxCell>
        <mxCell id="xcyX9j9_3t78MYzINzkI-69" value="Internet" style="text;html=1;resizable=0;autosize=1;align=center;verticalAlign=middle;points=[];fillColor=none;strokeColor=none;rounded=0;" parent="tmh-D557QrPGJzhV4SVf-1" vertex="1">
          <mxGeometry x="28.5" y="24" width="51" height="18" as="geometry" />
        </mxCell>
        <mxCell id="xcyX9j9_3t78MYzINzkI-70" value="" style="endArrow=none;dashed=1;html=1;" parent="tmh-D557QrPGJzhV4SVf-1" edge="1">
          <mxGeometry width="50" height="50" relative="1" as="geometry">
            <mxPoint x="411" y="423" as="sourcePoint" />
            <mxPoint x="406" y="9" as="targetPoint" />
          </mxGeometry>
        </mxCell>
        <mxCell id="xcyX9j9_3t78MYzINzkI-71" value="" style="endArrow=classic;html=1;exitX=0.5;exitY=1;exitDx=0;exitDy=0;startArrow=classic;startFill=1;" parent="tmh-D557QrPGJzhV4SVf-1" source="xcyX9j9_3t78MYzINzkI-49" edge="1">
          <mxGeometry width="50" height="50" relative="1" as="geometry">
            <mxPoint x="601" y="400" as="sourcePoint" />
            <mxPoint x="696" y="487" as="targetPoint" />
          </mxGeometry>
        </mxCell>
        <mxCell id="xcyX9j9_3t78MYzINzkI-72" value="HTTPS" style="text;html=1;resizable=0;autosize=1;align=center;verticalAlign=middle;points=[];fillColor=none;strokeColor=none;rounded=0;" parent="tmh-D557QrPGJzhV4SVf-1" vertex="1">
          <mxGeometry x="711.5" y="367" width="49" height="18" as="geometry" />
        </mxCell>
        <mxCell id="HNsxZ0i6CEFMTYmWByBa-0" value="" style="endArrow=classic;startArrow=classic;html=1;entryX=0;entryY=0.5;entryDx=0;entryDy=0;edgeStyle=orthogonalEdgeStyle;rounded=0;" parent="tmh-D557QrPGJzhV4SVf-1" target="HgPckvsHtpQbL60gwhYp-0" edge="1">
          <mxGeometry width="50" height="50" relative="1" as="geometry">
            <mxPoint x="201" y="664" as="sourcePoint" />
            <mxPoint x="650" y="364" as="targetPoint" />
          </mxGeometry>
        </mxCell>
        <mxCell id="HNsxZ0i6CEFMTYmWByBa-1" value="" style="endArrow=classic;startArrow=classic;html=1;exitX=1;exitY=0.659;exitDx=0;exitDy=0;entryX=0;entryY=0.5;entryDx=0;entryDy=0;exitPerimeter=0;" parent="tmh-D557QrPGJzhV4SVf-1" source="xcyX9j9_3t78MYzINzkI-20" target="xcyX9j9_3t78MYzINzkI-19" edge="1">
          <mxGeometry width="50" height="50" relative="1" as="geometry">
            <mxPoint x="593" y="670.95" as="sourcePoint" />
            <mxPoint x="621.999" y="670.502" as="targetPoint" />
          </mxGeometry>
        </mxCell>
        <mxCell id="HNsxZ0i6CEFMTYmWByBa-3" value="" style="html=1;dashed=0;whitespace=wrap;fillColor=#2875E2;strokeColor=#ffffff;points=[[0.005,0.63,0],[0.1,0.2,0],[0.9,0.2,0],[0.5,0,0],[0.995,0.63,0],[0.72,0.99,0],[0.5,1,0],[0.28,0.99,0]];shape=mxgraph.kubernetes.icon;prIcon=kubelet;fontSize=12;align=center;" parent="tmh-D557QrPGJzhV4SVf-1" vertex="1">
          <mxGeometry x="619" y="272.75" width="37" height="29" as="geometry" />
        </mxCell>
        <mxCell id="HgPckvsHtpQbL60gwhYp-0" value="Aidbox" style="rounded=1;whiteSpace=wrap;html=1;strokeColor=#000000;fillColor=#FFF4C3;fontSize=10;align=center;" parent="tmh-D557QrPGJzhV4SVf-1" vertex="1">
          <mxGeometry x="241" y="597" width="65" height="27.5" as="geometry" />
        </mxCell>
        <mxCell id="HgPckvsHtpQbL60gwhYp-1" value="Aidbox&lt;br&gt;dashboard" style="rounded=1;whiteSpace=wrap;html=1;strokeColor=#000000;fillColor=#FFF4C3;fontSize=10;align=center;" parent="tmh-D557QrPGJzhV4SVf-1" vertex="1">
          <mxGeometry x="241" y="562.33" width="66" height="27.5" as="geometry" />
        </mxCell>
        <mxCell id="IyH2yJy_CdPDOLWACVlW-0" value="&lt;b&gt;Web server&lt;/b&gt;&lt;br&gt;microservices" style="rounded=0;whiteSpace=wrap;html=1;strokeColor=#6c8ebf;fontSize=12;align=center;fillColor=#dae8fc;verticalAlign=top;" parent="tmh-D557QrPGJzhV4SVf-1" vertex="1">
          <mxGeometry x="846" y="75.75" width="129" height="227" as="geometry" />
        </mxCell>
        <mxCell id="IyH2yJy_CdPDOLWACVlW-4" value="" style="endArrow=none;dashed=1;html=1;dashPattern=1 3;strokeWidth=2;" parent="tmh-D557QrPGJzhV4SVf-1" edge="1">
          <mxGeometry width="50" height="50" relative="1" as="geometry">
            <mxPoint x="754" y="276" as="sourcePoint" />
            <mxPoint x="845" y="76" as="targetPoint" />
          </mxGeometry>
        </mxCell>
        <mxCell id="IyH2yJy_CdPDOLWACVlW-5" value="" style="endArrow=none;dashed=1;html=1;dashPattern=1 3;strokeWidth=2;entryX=0;entryY=1;entryDx=0;entryDy=0;" parent="tmh-D557QrPGJzhV4SVf-1" target="IyH2yJy_CdPDOLWACVlW-0" edge="1">
          <mxGeometry width="50" height="50" relative="1" as="geometry">
            <mxPoint x="751.5" y="298.5" as="sourcePoint" />
            <mxPoint x="801.5" y="248.5" as="targetPoint" />
          </mxGeometry>
        </mxCell>
        <mxCell id="IyH2yJy_CdPDOLWACVlW-6" value="Dashboard app" style="rounded=1;whiteSpace=wrap;html=1;strokeColor=#000000;fillColor=#FFF4C3;fontSize=10;align=center;" parent="tmh-D557QrPGJzhV4SVf-1" vertex="1">
          <mxGeometry x="859.5" y="134" width="102" height="22.5" as="geometry" />
        </mxCell>
        <mxCell id="IyH2yJy_CdPDOLWACVlW-7" value="Terminology app" style="rounded=1;whiteSpace=wrap;html=1;strokeColor=#000000;fillColor=#FFF4C3;fontSize=10;align=center;" parent="tmh-D557QrPGJzhV4SVf-1" vertex="1">
          <mxGeometry x="859.5" y="169" width="102" height="22.5" as="geometry" />
        </mxCell>
        <mxCell id="IyH2yJy_CdPDOLWACVlW-8" value="ExpressJS server" style="rounded=1;whiteSpace=wrap;html=1;strokeColor=#666666;fillColor=#f5f5f5;fontSize=10;align=center;rotation=-90;fontColor=#333333;" parent="tmh-D557QrPGJzhV4SVf-1" vertex="1">
          <mxGeometry x="894.5" y="179.5" width="225" height="22.5" as="geometry" />
        </mxCell>
        <mxCell id="IyH2yJy_CdPDOLWACVlW-9" value="Flywheel app" style="rounded=1;whiteSpace=wrap;html=1;strokeColor=#000000;fillColor=#FFF4C3;fontSize=10;align=center;" parent="tmh-D557QrPGJzhV4SVf-1" vertex="1">
          <mxGeometry x="859.5" y="204" width="102" height="22.5" as="geometry" />
        </mxCell>
        <mxCell id="IyH2yJy_CdPDOLWACVlW-10" value="Prometheus" style="rounded=1;whiteSpace=wrap;html=1;strokeColor=#000000;fillColor=#FFF4C3;fontSize=10;align=center;" parent="tmh-D557QrPGJzhV4SVf-1" vertex="1">
          <mxGeometry x="647.5" y="310" width="102" height="22.5" as="geometry" />
        </mxCell>
        <mxCell id="IyH2yJy_CdPDOLWACVlW-12" value="&lt;b&gt;Dashboard&amp;nbsp;&lt;/b&gt;&lt;br&gt;front-end" style="rounded=0;whiteSpace=wrap;html=1;strokeColor=#6c8ebf;fontSize=12;align=center;fillColor=#dae8fc;verticalAlign=top;" parent="tmh-D557QrPGJzhV4SVf-1" vertex="1">
          <mxGeometry x="1035" y="75.75" width="129" height="227" as="geometry" />
        </mxCell>
        <mxCell id="IyH2yJy_CdPDOLWACVlW-13" value="VueJS" style="rounded=1;whiteSpace=wrap;html=1;strokeColor=#000000;fillColor=#FFF4C3;fontSize=10;align=center;" parent="tmh-D557QrPGJzhV4SVf-1" vertex="1">
          <mxGeometry x="1048.5" y="134" width="102" height="22.5" as="geometry" />
        </mxCell>
        <mxCell id="IyH2yJy_CdPDOLWACVlW-14" value="D3.js" style="rounded=1;whiteSpace=wrap;html=1;strokeColor=#000000;fillColor=#FFF4C3;fontSize=10;align=center;" parent="tmh-D557QrPGJzhV4SVf-1" vertex="1">
          <mxGeometry x="1048.5" y="169" width="102" height="22.5" as="geometry" />
        </mxCell>
        <mxCell id="IyH2yJy_CdPDOLWACVlW-15" value="" style="shape=image;verticalLabelPosition=bottom;labelBackgroundColor=#ffffff;verticalAlign=top;aspect=fixed;imageAspect=0;image=https://upload.wikimedia.org/wikipedia/commons/thumb/9/95/Vue.js_Logo_2.svg/1200px-Vue.js_Logo_2.svg.png;" parent="tmh-D557QrPGJzhV4SVf-1" vertex="1">
          <mxGeometry x="1057" y="217" width="40.35" height="35" as="geometry" />
        </mxCell>
        <mxCell id="IyH2yJy_CdPDOLWACVlW-16" value="" style="shape=image;verticalLabelPosition=bottom;labelBackgroundColor=#ffffff;verticalAlign=top;aspect=fixed;imageAspect=0;image=https://raw.githubusercontent.com/d3/d3-logo/master/d3.png;" parent="tmh-D557QrPGJzhV4SVf-1" vertex="1">
          <mxGeometry x="1099" y="244" width="41" height="41" as="geometry" />
        </mxCell>
        <mxCell id="IyH2yJy_CdPDOLWACVlW-18" value="" style="shape=image;verticalLabelPosition=bottom;labelBackgroundColor=#ffffff;verticalAlign=top;aspect=fixed;imageAspect=0;image=data:image/png,iVBORw0KGgoAAAANSUhEUgAAAWQAAABhCAYAAADhodsnAAAgAElEQVR4Ae2d769tR1nH+Z9ubq5v6L1XWxIx4Iv6QiSgJhANoa9ASUyARipURRIk/Ig0BCVBiJGKCTRiIARaWpAKplS0hjZgxUK9SQFpqYdzlvnMM9+ZZ2b92Gvvfc7ea+8zOzlnZs2aNfPMM9/5rmeembXWS7r2axpoGmgaaBpYhAZesggpmhBNA00DTQNNA10j5AaCpoGmgaaBhWigEfJCOqKJ0TTQNNA00Ai5YaBpoGmgaWAhGmiEvJCOaGI0DTQNNA00Qm4YaBpoGmgaWIgGGiEvpCOaGE0DTQNNA42QGwYOTAMnSd7Ts9Ou6/jr/+xc1ykscpwVR+2gaWAxGmiEvJiuaIKs0oDIVeHTTz/dffBD7+s+/4XPdc8//9Ou64ysdX6ovKlzQ/lbWtPALjXQCHmX2m51ba0BT6if+eynu9vveGn3ile+rHvr297SPfPM9wuL2eeVJa20OtxasFZA08A5aKAR8jkosRWxIw1UroaPf/yvuttuXE1/EPOH7/tA9+yzPyyIWdKJhHXcwqaBpWmgEfLSeqTJM6iBmkw5FiG/9PqV7rYb/F3tbrt+rXv1a+7ssJ5v3bo1q6zBTC2xaWAPGmiEvAeltyo31wBELHIWIZuVLFKOxHzjavfGu94Q/MsvvvhiqFDXqfb6WOktbBrYlwYaIe9L863erTQAmZaEnF0XyVq+cbW7cfMXgn/5oYcejG6MvEsDARopb9UN7eJz1kAj5HNWaCtuFxqw7W7jhCxyztbyL7/8ZnfPPe/onnjiiV0I2OpoGthIA42QN1Jbu2gJGlhNyCLmHL7u9a/tnnzqySWI32RoGuhpoBFyTyUt4VA0sAkhs+h3//2fCk1s7opD6enLI2cj5MvT10fX0k0IGZ/y337qk0EXjZCPDhIH36BGyAffhZe3AZsQMjsyjJBXP9V3eTXbWr4vDTRC3pfmW71ba2A7Qh5+B8bWQrUCmga20EAj5C2U1y7drwY2IeTssjBCbm6L/fZhq73UQCPkUh/t6IA0sA0hNyI+oI6+RKI2Qr5EnX1sTd2GkPWyoWPTSWvPYWugEfJh99+lln4TQs6Lepdada3xC9VAI+SFdkwTa7UGGiGv1lHLcVgaaIR8WP3VpHUaaITslNGiR6GBRshH0Y2XsxGNkC9nvx9zqxshH3PvHnnbGiEfeQdfwuY1Qr6EnX4sTW6EfCw92dohDTRCliZaeHAaaIR8cF3WBF6hgUbIKxTUTi9XA42Ql9s3TbLNNHBpCPnwn8yyl7KHbi4+9uneyZDSXdpmuNjzVa6tE5IsiZBrfNXHQw+i9PMcwhdMyi+u5O4ZwVzApM7FfiWtSM+lrIr1dJbK4spYTyy7l3dV4Qs4f/SEbJ0iQLhOk/JD5+lg4WGQ9cTALLnrsGiC2q2wOLnzg80GCLIPyw8hFx84dV+gtu/s5RfT+2O9fvMiFODb6ON1XeW5PsnpvML6+t0fI2PdD65vhMMiT9WulAfp67Lmtcjrw+JRBpV9ppvaaSR9kf+88ved66gI2XeWV2xIV4cFIOQPZfp8i44n+SUlYBfgDdxj7dcVSwmn5OScP+/jtfxLspCRzcvq46Xc6jNLtXzT5DReVlnyhR6Bv4jBSXmE04EwtzXqQHlmkXOlI65N19NyT8xV3jROLlRD51L4URFyrZFB4BSdWA6O+vplHeuOf1IM/AKUAmnRRl23jNbQJ+oXhWOSjZ1X+tIIWe2QfBz7uM6nMPaT8ijUeY7rNJ3bfTg1ViIZJmKNs7h0HKUVPuNhbltNoHNbV8pk5fmyFC/zzS19H/mOmpBRKJ30yFcf7j76lx8NIccZCCsGzD56ZFadkWTPuu5r3/+b7pPf/oPuH596v7UrkbHAGLQwq9R9ZfL9EaQ9Q/bT7vNf+Fx3991v7+69913dt//t8Z54SyJktaEOe0LHhBdeeCF8cJV2nfy8TxgqZ+z6facPyhcJl3PfvvVFN4MTQUtqj81+25VrMEz4HjwbEyu33lTWhZ07IkL2nWxEyxeGGdC33/HSDh8i78L9vd9/cxjcYRDM6tyF9Fgl61PP/XP3wUdf3b3zoZvh711f+aXuPV97ZffoD/4+DnAjtYVIX4jhB7OPk+nFF1/sHvvWN7o3vfmu0F/m+70S+vDD932ge+6551JZn/jEX4d+ve1G/rq09xWPxS/Kh1y3JQnqIhAxBsJv/darQpvA5hvvekP3zW9+M/SbylDoLt1/NBKuBAkyymd71nXP/ey/u48//qYOLP7Rw7/Y3fvw7cFYID3P5ITLcryqzPHQ5yfuiTye0xgJIWl1vvHSl3LmaAg5A/i0e/rppzsGL59+LwelDVyI+YMfel/Il69bSpdMyHHWdc/87390f/fvfxhAD/D/+Cu3Gyk/ckdK+8i/vL6DsMMgEEgnit3XKeleIf325+/7s9BnebFOZHslEPSv/8avBsv51q1boY/pX8s7vIBX9r/luShClh7VHh1beBos4re+7S0dH1o1ua5k2a9f697/gfd23/3udxPZUM5wWWXJuzgq5fAEeBqImBnaOx+5IxAxRgJkDD5J+5NHXhZmcCUxI7UvZ1Ur5Ho77X7yf//TPfnc17rHfvAP4Q+sc/xfP/nXUMitF74XLfRIygseA3Wrj4aQaRjW02c+++nu1a+5MwF+ynq689d+JXxf7dlnf1jrZXHHzz//0wDqP/3qy7t7H76ZyFfWCKH/g6hxZQikS2uQBjgh+sfapT8ygYqIRbQiL0t/3etf20HOIX8iOOWdDi+akGtdQ7IYCJqpDWOSdl3pXvHKl3W4Yp555vupGOkqJewrkohN5HgSXGbv/ac7A/awisHg+7/+qu6B77wnzODAociZfLjY8uxU5axuUNBBtHzBNNimXMqkrnd/9eUdY4MfBglymFUeSX91FYvIcTSE/OUHv1RNc6cHZR74V8OU8Ytf9D4v65uhgTCUNqsnPZh1QQRYOEzxaBWl46576D8/FoCHpeFJV0D3acSVDnHjxgCwuAKKXyhf0z4NDIF3fctstV6itYIQoe4uDMwHHngg6N/3x0XHNyHkofaVaa59UdHo/P77PxXcE3PbJGsfNwY+9GRFFp13MQfWHmGhrkPYsP7DRwzxgTUsYsgYcsRSDr+I3y997yMBg8Ioef/iG78ZLVjVQdnCImmqq9JpxI3wA7ZF8LjvqIP6iCOP8qmWQwgXT8gl6PsqffzxbwU/Me4JXBECvoBdH9fpOo/1wnQSX57/rarf510dF9DiYqIApgs5dmlMwwAvoPdknAnXpoUAEaCbNWI+ZQDJdFHpgBdi51e0ydcZ6o6Dw6dLvhVhUe5kXltoxZ/v+0x9cdHhJoTc09tI+0wHtiAJqWb3xHwDQe0Hk+gIn/rc3/w+qEsUIVYkCFEmXHQdMzX8xOARHIIz4tz0cRV4/Ib4WRfScbMJw+CUv489dlf/mkDGeZzUUgayjvJgEUPA1ItM3BBIo1zqktyb66Rf+0WnLI6QvfJ8vFYE01z8jeU0F9DXU93xgVCSs13HlJFybco4BYxaolXHsaxJorM8L5z8KIEKYEGqsjCwekXIOc2I2afrGvn1GADkh+CDfzkNtCh3BPmwzjVYV7Wxf74uDz/xu99zb5iam/7n95eIattwU0KmdXV76hY/+dST4cae1y/MFbGezOU1YPyee94RXDsQkmQgVHyObLWs9bGVFS1kt1infJCuuczyugXkZ3gKEsSsNdatTFwNECfYFK4pj3ILIk8WciwuYFPGisbkaSB1ETLWOqRPeVjNgZC5fHK8xfIXFCyKkAWuOvT64g7NNDD7iT3hlkAeGwQQQUnGIvJMDvgnGbisig/9kFFyDp0fTxOgyOHjJzaFj6AXgYpYIVMI1/+JkHXOH3O9fM1YMZyTxUyID47FkQxYJ4tArIEw3pjBM9KLQjKhR3yjye8786m6sT7cJn0bQlaD1TaF4JIbOTf0bWTL1/axDDHja6cu1Ys8Pi751g5TX4MDdwM+64J7gRmW8AUm8ROnrW3p2lirOy5ls7K5jutVHvikfBbpUv5URuVCCek29iDeHzz/ZPeznz8fZNFiHrjmHD8rz2F7bcXs9oJFEbJveuqYmKjtQkwD+2TqSXkonolW1yrMA0DXaSBcCdPN3/nd3+4eeujBMAi8fIrXcip9OvQAMSIGjEy5AGlNoAKuQm8JK00hZKs4IaTMAFK6J3gWQrAw+sTMgMyW0nRbhs9qINBv+PfRo+la+rVtiOP9oP44/3BTQh7qaxaS8YNf5I3GdBSNiOvXgi7ZOgcx+9+QfP78ZDwSXcpz1oUFYfmJhSkwoz3vub6IZ8pIREpJcndYqTm/HYM9s7jNBw1Gqc8Wot0Y8WX6eBK2xqquVZgyLj6yWELOmjsN+4aZstX+xmIwT660Z0KGFPx1Pt4n55yX/cz2cELu5BpgWeapmLM+utMw3WPaJ6KEbCFkuSaIm7Wb/cUaHEa4li6Lmvx2fT8/eZQP8FMn9WCtsH/ZBlNsXwJ+ZaGMNi3rRVnk3zc/6ngfDOn9ItM2I+SyfewUePTRr9uCpMPeKjyNtyvfqMbzcHPKszvGBDq2n8m3GSYpIfczVifTf7AiXOICwN2AO81w4h++KDFdzvyEhrKOkHrWBeuW2RrlC9fUS/3aIVS2yc9M1Sd1qBtDbpOXYsnxxRByqXRUdhL8uGwXsmmgDeiSlMtBPg3kVZbWVFlmLSNH3isqEKzZvRCd208MEEXCANKTMekiUIHVh7WlXB+TV6Src5RPOsc1cWOd2DTUtSkQ83ptZZsXehryo0JYm5PWqj6cd34zQpZOzEDAD56xaNhRu3wbLW0KW5K5zsNxnUZepZseweR993047KmHCDWOFErq1SGkehKsX9wHHncFLiJ+rTwRMfjI1rDV7a1WEaPPrzQrCfKlHgwFudqQA2scl0QoP7n4VI5CylB5WQeh5A3waxLt5/9iCLluPlOyMM111ocHY0m+Hrg+LrCPhxpEZXkCvr8uDoTr18I2po22JAVw2DY2wCZy9CQLgfrBQB5ZKSJSn19xX5YALRJWeTrWNT6dOiiDG0RYZKFDorx13wwex7zsCOApNNNn3RdRhyKaom+9ri82vikh4yLgEXxzT/i2+HYqff02jGORsnwd/bLZl21bNytCGuysfiIPbWi7mPDBzEm+2NrqLUiX4gqseKJUXZ6gSYPEJavd8CkT1522sCEHuOQ47OBQUUVdtbEQj0Oe+pwKWG64WELWoJ4GaR+YfWJdnWeTOpBvvZ0YBg6mfJCxQA/gaqLUuV2HELJIWtPFeiBOQZlpfHgS7ZwX7DbpnykcbErILCbX5c6XzRPqMGnPL2sY08xIeF2AfutYyVinuqnj18W/G9wToTARbE1wskpVoyfmbDHnsz4/ZfrjXDb1Ur8sdTDJ7qDyF68vEw/+aDGELPAo9Iskc4A6J089mDi26/xgGQZ7fS3yscVpPmGZNYAl4glZvuJdk29dHzcGTRe5QWjPslk+ebCMIZ5+YwEPS22VNVfr0h/P68dhQvPlTMU3IWTap8e6p8rWuV470mwgYq04XoW/VeczZnlSlZ/G0Vh/1enMjCBkFpZ7+4l9ZixP/SUXgog4E2yoP1my4CdiyG+nS+djBb7csy7soJDVDinbj3J0g3D1ehkPOL4YQpYOBSRPyAL5RYW9wTPDwmPb3XqEbC2EkFmpllUMEdbkuI9juTlUNxYKP/WH+mcqPA9Ctj7uE9AmfTSGl00ImXbjF6/LrOWqj33+0udMG/WXCdXnz/G+PvK58lqseP3W6Tv1OwvM4ZfIMpJsONaN2VunmYQT6UZXBL5frF128fg/Wd4Faaf6vGV9Gtxnki3vd1YLCSWTTzvc+OIIWapcl5CnBsIYeEmfe12db1tCBmSQ8lIIGXm8+yRZyGsAHkLG71/rakr/U+coh0UrewfE2GLgXFLLxHUehDynjWUekz+QcrKOr9qTfP7YGQPl9Vn+KZ1tSsjCYiLkMBAhOxGeiPc0kCyLbeyESD7mQKhG1Li7uKHjZsD9gfXN7IuQP3zTXJv2Mac6qNQTchcIGWMB650nV7M8Ygr5oXV82OHREHIGqQ1QgZkBwOOnvN0N/6Ze8KLz4bqRAZHL7A+GbQgZkIqQdfdfQsig1MCUhdwfAOOA385CLq1A/KG8B5lFQkgmuEKKfhIRl9dN9ZnOnQchqywfFphyxBryBNlNVvJhcOACMZ/7+m3w9SpOuZ6Q6am5VjIuAUgvELKsVYUUpHjcn6z8kGvASDzPjRx8Uxbkqxs9+WV8cI50zlNf2E/N9aEMI36T+yRZyJByesIUAnd5xxF5eGcWSch0hizkSZB70KfBqoF6NVhr+NTC26VC37h3DPhrZ8a9LJ6Q54IeEWqXBQS4BDKuZciE7Px1K/C9nYWc+40bKA/j+JsBr9tke5dwUUz3U9/3b5wiKx9uSsjc1IUBhZTr40PHoe5IyBgIbJlLL9w/68KDJeG9FxGHVp70sR5Z14S8osvSafofLGYLWZan3BOylO2BEQiWa/DxyqeMtSzihXQha/Yus2tHf+w5xnIWoUO01JnHKCLFutDNd96THmoyC1nE7fKlVhx+ZJGEjFrzwJs3yPyg4BFTHtMde60mg5tBuW4dflB7Ql4HBhCyLGQNgpoM93ksKzkTch6Iq9q5nYV8NWyX4wb64x//KFQVbnTR8lLdEBmWpfyxvt99/0zFNyXkOT7kut4s35XwNkK2c4af2hUtPbBaY7Ik5nnjYNO24VIAdyLkZGQE+eRGMMsUlwTWLVgJhNyZGwMCpgzIGCI1knX40YJedxpcHaylyFo294XLG0jZfMjK0yNk6VDgOIJwUYScQLABIWtlnymgveTbeieX6TvbzpEPa2WTN3KdFyF7v+0SiBh5GACZkNFVX3dD2JeFrL6AnDIhjRMK5ArJ8uKh/o+6y/oZ6Dwlp62Rvr6aEIeONyWtIUIeKr9OAyvsWw9fO4kEjDXJbhtIzD+Mo4dq5FqjrDk6VJ24eDLm+9ocS4Fg6ftAyDXRcezS+EgC+bFyjZC74E4wkr4ZdmqU9fj+y3H80LoRYDnnOpQnL+phSZeEHN0WTq6yzsM8WhQhexVuYr0C/OFBPe5LI79t1RonDIHdh9sQMpbBPsl3Tt0lIfueGY9nQh7X5RC5sHDnb6LjNZRneEjD98nc+C4JmZuNuV9MdqxLSEx9IOsPIgzvFGFZ6+cnwX+e3TJDbovSpYEOaRdkvAkhy3UmC7nUdHkkQqYNImTIUoTMTabvghDJ5rLYXof7gvHAIp/JXbrIsLQhY+pKhJyLOLrYUREyxFpMdye6S6DlJeK8E2DuYFa+Rsh95WZCHiKQYZKGoHEx1TdS9U+/Fkvh/K4/crrKQh662bA4KX8xlrD2ehNCxiJC4ljMuLSYEYSbjVsIBHdWvojY9En5zArtIaVMZqv0V+tVcmxKyJCr31+vd1FwkynIOVi0JTkja5bXn8uLeo2Q6x7b8fEmFrIIWZ2rcEp08gS3xcyFvUbI49qcS8ieuMYIWbVM9eHSCFnY8CGEqRcAsQPBu6iw/GT9QThYmFif/Mz69+Sb4+gMy5uFQFw3xYMS0Hn4ardp0Mel06FwW0LmJoLbgXZws6GduDR40ASSxz2Bm4ZHo9ktoRtPKbsj4+iK4DrKbIQ81Gs7TNuGkFeJ6UFKvBFy+T0+wL+dy2K+hQx5rbKQfX/5vj00QkanImAsYghLZEOYCPlMhDwwq7h+LbjYzO1yUpCv142Pj+nP5xkmZEeQLvOQy4LTkCzkSzvkG1YbVT7t5jxEzQ4MdBJeHlRYznkREZcF1zRCdh2wj+i2hDwHhOThrxHy8ggZzI31odIPipDPukA+IiYRFgRtVvPNsPumtJAh5Hhzu34tvD2Ptx/i3pEOxsamziscy6d0yVW6LNYhZO0N7oIVjMsC/zLEq7ZCzpoVQLKKkyf4hyHlaBmbXOaykGzNh6ze2kO4KSGHlWwnbw1IjpWmeCPkpRDyMAHQneozdS3Hh0jIkK+3iomLnLAc9VIn9lwnMr5xJaxz1O/jli7OIxTplYQ8XPKghSwijZYu/cMj0rxbGSLFVYHLAosY1wYkLEJGByzs2Ws2qTP7wrGQpa9GyMP9sZPUTQlZi3q1kDag+wOe9EbIuyFk7zvGVaHj7LIob5b0ofWb9aaPk7I0QlZ7ah+yFvWY0rMDQeQH0YigCZnCC6dsk8P/zLoIuzTwz2v7n/RQhzXm1zmWTBsTsioTMVdbFcNpzsU/yBqS1lN9WM/hIwkho8bpyD5k1XWE4dHtsqgt5LLP8oBXOivAjZB3Q8ieqBTXAhXfijPSUc+UZJxTLca03T/dpvLmhHvb9nZmW9qwEr2fFWsRchLBWgtPOh4p9kRc6+A8j7clZFwU7LLATWELdnI/QK4iWEmcj7lOFnDx/pRI7M1Cls72HG5qIU8TsjXKA5/4PggZi0gLHgLkUkIGJ6SRfsnqSSmDEchjkz3dgUSvXwtPsvFgAzdJ30e+Mp5og7zZdzuHfOs87E7Qfl1f7pz4qm1vvi5vLYNlnkD0D4awHYypO4TDT+2twzlynUeekpDjotpIv8tlwTXah4x1D35xv4QHXcK1jozTcSkthKy6cWnU5D1OyPJZZ3IvSz7Mo6OzkOWyELB9t/g0xQn3QciAV4scSyBiTZ2RibgRssCefXpen3UcQs4fM807BDw5edIq43nxiqf29GpT9RNlM42H8CHVeWVmGVSXCBnZVXbdjrHjdQhZ9Xk59Y6OVG8iPNNzSh8T4ALTRYq4LIIcUbYhmUTI4FaEDF5EyFj8+MKLa9VWwvhHOeQV/uU/z/VnlwXylT5kj0nh9AIVtKOij5aQ5+qPzt8FIQucTOf8BnrIT2QoYO4jBPBaXCKeLGQNpBkKrQnZk5EIajzUPlsjZqxKfMS4Jnj/Q3grWvUSofXKN3L2hDyjSUUWCHmdOn1e6rW2X0lvsbPCtcXLjoQThaT6eCHQOR6wwAbuCh9y6PtSPqocImRw7clVT99h9WIx+z/S5OIAc9TLF0vCAyQF3jIhkycQciTzYEkXec9RGXss6ugI2bssPJB93Oub9F0Qsur0hCyrROE+iNjXiRwamImQe/4/taQf1oQMAXlSGifj2pKN1vINe+FQ6Z4Qcds1a5d//VpwWfiV/H5LhlPmWshDMhkhR9mvXwt7rymPF12VW712Q8B1C8EBs6OCkFPflxaoJ2QWKfXDwrVFy5vBR06ZYAp/uf8T3gkh5MLvrO/sRbLFZRFmbY/cMWAhy20hCQ4/PDpClsuCrhEJj4Xk2eWiHnJAyIBTloHA6YlxX3EsdckTCDkMinIwTkF+iJDnkvAQieVrM0HntJrE5x/bot78dqnNvH5T9U/LO3QjMjL21xHnBUm8MjNYh267l+rcVWjkGV8uFIh4XD8QsnDiCRmrFd842NErNjX7Iz83ex1DshAxee0LItTn3BCOkJGN8ZJdFpbPxvW4nLvS3XnWc3SE7C1kFCUyHlIa5/jbnYV8Gr5XBiEL0Ar3RcKqV4NFm/izhTykuaE0/009keM6RDqc1xPYXDJUvn5odYiQp7Ax1MK5FnK/XukjhnK9xBDrGd/4lx/8UiTmuvaLJx1ZoclChhAjKaYwiuUJWT5k8pg+jSy5wfB+C6xm3BXgicegiZPG/mR9yim11tWpvvGLeukTTkEuR96pgMOPHA0hM3BZUOJlQfzUoWNdpPO7tJCRBQtZ70MOg2DgQQGR5K5DWTHUyzasdX/okoUrCElEqnAlSc3+vlwue3WZmQiTHNevFV/VEA7mtFWEnMpa6/0n9v6JLPOV9Pkm+ZcJ8ZWzoFnKtTtCZn0jER+WskjZKWjIZZHkdaTqLrGoiLTIM7CjI9YJceOXxjrGiEl1dOO7cHp1HljC0RAyQOex0nrbzJz+YMqYB0oexFNp67/tTeA+CVM1SE+ETLhr8h2qT9YxNwy9CtL0N98awcorfb6bEKhN7/OTarlPRIYK6SMfn+ozzrF32d6M5izAOSDpuuB7XlX+9Pk8Cyhlzum6nif1Nnkl6cym9LKxBQ8cypXGcXYRlNmxbiFIMORdFpkwya/FwAHC9UQfydfGrd14IGLqx0CQi4NtdSlPuqaU6xiODoCQI1g1zRuwpCBH9qZ6QPj4qo7CqmYam194nglAA6QOMyFT+hwLJj+UAqCZGooAGQhyXZgf11a8NThE3AwAb8XaseX11ykfoQBNvP6jfH+eY6ag2UKKmltzAPAGMixlWX6BWHv9N/bR0mndl0Tm8sbyh8/bKz7rl+CvgxE0wfoEb2HTHvnhupxMa1nQ/evAGMaC3HB9ecHdHOytGgG2lgLpgUnhjhszLgNmdf7HLgnD2M2AF3+utKgz5i29kjXhytJxYeDW0AxS48PIuKjlaA8OgJAF1HIAMxh4tJRB9sQTTwx2UB/AOVv/3GmwSJiWUi4EPDbgSC8JOZc7GUsANOsMtwCLH5Ai4INsZS2LoGsStYGQLeo6H75g7ZTweUljoGmwKY8Imalh9hvLmqc11SCabGA+yU3O7xsesnZJG9PxlP79zTFfX1uZ+Uauj6XSFvW7wizxdCznPwl4o8z8VY9cd5bHcGvH+byXfTxO/vyVaqz6Bx54YOO+mG5ZeVaYBFdggxBssE0NcsZyhTCFO9LyL+IGnOsvn7RYGAMuXzzPU3pyT4BN6mZshIdF/Lipyzuy48UQcga8+X9lhWTQGkh1jK/N3gW7ukd82atzd+FLx3ppvR9gOZ4Jeb2yRXSR5OJCCGDU3mSRsywQs57z7geRrECrY0LINlwf/dIiXcI6P3kZVAwuBhsLMOnnB82ahFzrg33E7Ceu3Rjqx6xT3XjL0J/3ca4vjzOJqWyIjPdA2A6G1LoQkZwKy7OrjygT/IX90ZUlXMpFe9YlZF2Tr4P8qevC3BgivRhChBAkuJGRIMbe2lMAAAd6SURBVEzqpg5msWqDDrkuXFu7tzh2N/WUh7STMBtjVkY92n1EuYyJTftmde8tN8diCBkV5Q7IX52uB55ethI+HT6h11zWRKZYp/IqBEBs4eKBBOpjgNWDrLSQHeAmqxMhW6ZU35kt9mFtCJRTbgoGhidiWTM+zccZQCJgXcsxbhP8dWm7URpU+YYx2Zw1TkIk2s1S67I+FqGOpet8jQ2l87Ki9KjyhIxJ/xN5hk7pOkLcGMwEwEMtb30s+YbDTL5T55nBUa9kGJJvszT6vMQxN2lcCBAzN24e9gCfECaWMq63/i8SciJeEbVC8ylD5OCP8iBj8EicMZCNA8lUytWv83hSFkPIJcBKQgagDDIsrVVE7LumLNOfmR+HmPHjUX/+GGq2kOeXFG84NenFAiQrYASoANSTqojUW7p2PvuQcx5bnMFaJs1bOMRZiGH7UWk5ahHGt6i8gfgzU3G1hTw+Tn2PPfZYWFgz/7JZtTUBTRGZndMN0l0f3xfMXmH5XL2MkkNhLZvPOxb31yqP0sBlfyYgOUurv26vHbu2VBa38jPLsO/zlQQlGSTTRmEgUK707gSrB/LUH/5kMMqiL7stSE9EHrFt8kjGGEaCJj8kL5eHMMuTeuar1nXWilBWkm2jlh3URYshZGlN4MJlwaAFhPjrbJBZZymPrlFIus4p1LnVYb5WeX0ZWEL4qwMx37gSFnbWmz56oBHXsYhQ5GchhIllIsBCxIAYooZoOeacB7bO6xrIV2mEWDnZT0wrVadarBArJ24tWmMweP2rpOHwNFiwWJWZjIy0pshYxGQugGxR4vNnEdHefyFLrF+z+lNhP8f8lFxG7MvofsJFg7sru2jWIeU+caMPMMfsgqf6cr3zZZ2fU+4GYdOu9HWCS8gTaxacYS3jd7abu67PNdq1p+E8r9eUn1jGAseUmbAY8CZcRjnWwGCu+TBjiyFk3+mokl0P+Mx4+5fIS52r4zGV+7J8fCw/6cpXh/4azrGAiFystmM9z/85cAl0/mLSfHoEIdYEoAf8RsR5QU/ESygXB4Qti1gr5vITmzXjB41uBl6Q84lLj3VpSifkJsdWxf56QSamIYJOadevhb3ntuDl21XXOn4secZz5DPDeenXWHfsM/AJbsudJrlN+cZSpqV2RQsZUr/77rfHj6SOk2SWcJuYSJAyYjzh0R2fdcGtIEyCN/4g6UCs4ZpSH6Rr1id8cj3Y7v/UToVRnn7Go0xZDCEXJJs61XdK2ckX1xvUafUODsA06LwEXk6fXsVTu2J6UZYfELrOytWrGgGxLAtIWFaytgdppwbpWDAaKLafNMuY2lXLE6rN+UyKIbkkXz9MZfdO1eXqJmg3OazKvE2uJKohAsO6xkUAqfvfeP2qz+c+zzj4rGdZNhPY5L3N3PRZwxj65TbGMTGUad20AotcXJJwLs7SsYhZDJalbHi8PbxkP/iWz+wlRHUe8uN/rrfS9XZlJHn6uMmyHF9sQYR8fMo97xZBrFgaclPIjaHBQKg/Vq7zFxjOW5KLKO80+Eff9Oa73JbD6JYIe4wtjnuCha3knrgIUc65TFwNzPjM3aXdIdnl4t02kDeLhHri9JxF2bg4uwk4coQwz7rw8IjehQz2MAIwHMApIcfCJGlmHFQ3kkS+G4t3NBc2Qj6UrgygNesEnx2EC9iNlM2nrMGAn9jcE2qcG0hKWmjIWgGEhBvDpvAQlz12PDZ9X2hTkhtM8rHmgItG+9y11xhChqxxvYS3v+kC7FS3LuKS9xQFRxWWAi5PgrtCmBQBg0fcZ6SD2UDqkcize47yKoLeU+uWUG0j5CX0wlwZnCUB4fr9ywyCcj+xXA0X5yeeK/Ym+SAmHh/m/SRYzTySbT57G7x52r5J6Rd7jZfNx6mVY6x7XBLsLcZPzHrE0IJdfe3FSj2jdJFp4dLL/SFMslDHFjks5J5xkMqYUd8lzNII+dA63ZGy/Hw2cEXAta+0smgW2975lpInKh/fd9OmZen7l3vW5mgDltCHXoaItQKLCJ8xmC3gKj200Zc12uhLeaIR8sF0u5vWhYHAcQR2Ghgc66/atXEw7ZwW1JOej09ftZ+z28i3zbUX09r6hqJaNANzJAseAyZJ8+cdNoXThF2Vd7nDRsiH0v8JuA7U6R20cQBoICgUYR9cGxF4jADqGcChNK4vZyZdR2b9bAtMcRiUdMJcwGk0FpSmPC1cqYFGyCtVtKAMAex+8Lp4OIesLi2JPpSWTi4ukomqL9rUuX7u3aZ42Xy8lsKf83Hy+WMfr8vY/bGbkYXKwZTHVe3GGDgvoSNWl9U+CbffsBHyfvW/Zu1xACTy5XJNCQeKIp/+Bk4fatJxDGT60rmhDqEzaiwVOHQN6KVXxF0Tubv0skcbIV92BLT2Nw00DSxGA42QF9MVTZCmgaaBy66BRsiXHQGt/U0DTQOL0UAj5MV0RROkaaBp4LJroBHyZUdAa3/TQNPAYjTQCHkxXdEEaRpoGrjsGmiEfNkR0NrfNNA0sBgNNEJeTFc0QZoGmgYuuwYaIV92BLT2Nw00DSxGA/8PZkhxluEjQKEAAAAASUVORK5CYII=;" parent="tmh-D557QrPGJzhV4SVf-1" vertex="1">
          <mxGeometry x="967" y="309.25" width="88.08" height="24" as="geometry" />
        </mxCell>
        <mxCell id="IyH2yJy_CdPDOLWACVlW-19" value="" style="shape=image;verticalLabelPosition=bottom;labelBackgroundColor=#ffffff;verticalAlign=top;aspect=fixed;imageAspect=0;image=data:image/png,iVBORw0KGgoAAAANSUhEUgAAAWcAAABnCAYAAADcz4M5AAAgAElEQVR4Ae2dzat+UXXf8zfpQBBx4sSBCA4EIQNxIGJpEaTtwIENNNDgwIEDEZpBWiENCA2I4MBJaBOaQgOClRYHKYKU0CDYQCOSprd8fvQj39/K2ufs8zznPPe5zT5wWftlve+91345+zz3N17WszywPLA8sDzwdB74jafTaCm0PLA8sDywPPCygvPqBMsDywPLA0/ogRWcn7BRlkrLA8sDywMrOK8+sDywPLA88IQeWMH5CRtlqbQ8sDywPLCC8+oDywPLA8sDT+iBFZyfsFGWSssDywPLAys4rz6wPLA8sDzwhB5YwfkJG2WptDywPLA8sILz6gPLA8sDywNP6IEVnJ+wUZZKywPLA8sDKzivPrA8sDywPPCEHljB+QkbZam0PLA8sDxwWXD+2//zt++8K7zH1WfwQP4Wn626e3Qf0T5C3hEZR3BHNnXlyTfTHe6o7Fa6ET/Lz+Lb8enKlDsLK4+an+VzFt698u+lP2LHI2SljEwf0XML97LgjNBO4a5MBWtd5jMt/gjO4IJT8Wp+xP/s8hm5Mzhn6zXLb6RbV96VjeRU3MxnekQ/U34PnxHtPeUj2hlbjuCknEzv8ehwa1nN7/F8ZP1It1H5nm7Q3Uq7x/vS4IzwWxWXTrhnSFc/QyuOsOPzqDJ02NJjVDdbXvEyn+lq71ZdxSV/FL/jYZm8hPfyTz7KuAqmLNPClFnLav5em1PWbDp1MC2c5THCSz6ZHuHfUp58M73HC9zEN59l8Kj5UdmevK36y4PzlvDZus4Re7SVZi8Pv4qzJ+Oe+pRlWniE71GaLfysy3TVp6uzTFhpzsjfwxvae+j39D/Ce4TblWdZpvf0OVrf8e7Kku9efeKSrvh7+Up/NF/5j+jB63BrWc2P+J1V/vDgPOuIzsArnXMl784Wyo7ITNxMj3jvlctD2OFnXaY7XMo6nFpW8yNeWd7RZFmmk870kfo9XHkKj+B3uJYJ5Ztwqy7xjqRHPLtyy4Qzcipuzc/wOAsH2cqvaWRkXSfT+qzryrL+jPRDgvPPfvazlz/8w3/78o1vfOPli1/84sunPvWpl49+9KMvH/nIR977+9jHPvby6U9/+uVLX/rSyze/+c2X73//+y9//df/6ww73/H4m//9Ny+/+MUvXoD5d5qAExilXqkvrEcdotKM8CwXpro//elPX/7gD/7Ny+/8zr94+dznPvfy8Y9//F3bfPjDH36vjSj/7Gc/+/Lbv/3PX7797W+//OhHP0o2v053MrqyXxNEYoS3ZWfSZFq2lgktB8L3l7/85cuf/7c/f/n5z3+eVTenf/jDH7783r/6vXd+wl/6s/Z5yn/zN3/z5bd+65+9w4fOp+pa8+LdA5NnppMnPvmTP/njl9/93X/5zp4vfOELvx7D9g+gaW36yle+8o7mBz/4wbtxlzxJV3k1X/HvzcOf8Y8tto221HYxb39PW0Z95Gz9LwvOBFUC8uc///mXD33oQy8f+MAH/s7fBz/4wRf+ujrLCOI4BoceeTpHoRMDAcczEfj3mc985tRJ4BY90ZeAp05A/PZP/uk/fhc8Kk/tI6hgU9IxGOojvpB60kyAtNFeO9gewsRnsmXi/S//9cfviU1Z71UcyCSPauf3vve9d5wSR9aWCS1ncOKfb33rW+98y2JA32ETbXDLg5yf/OQn7/zwiU984l2f1kdCfQfsyqz/5Cc/+W5xwoRZ9b9FtxmaKgc/MX5ZTDFe1E24pb84CeFBP/vOd77z8ld/9T/fU6nKfq/yhExnC/qnDZlOvbt02gLvfM605ZLgzKzEjKNhRwyXpoOs6P70P/6H9EWb1kFCkcj/2Z/9p1/rlTLohDyVRtorITIZCOhTfcVqbvRAR3BmAktbvvvd7+7aQWAjMCXdvWl0ZyIlSNXnDL8SRFNHVvryFaZcy/ARk9A//Ef/4O/4KvmRRv+jD0GUlW/ltZWv7Vzz0FIGX3aeVz76CRkEGyba2qdGtnR6q/uIhnZkFc6OJWWfaSN8taX2m5HOVd8tPOuutGUzOI8cNyoncO4NeIyi4cEj2LLl4480Za6yNb46jPxXv/rVl7/8y//xXluOdHoP6f9lCF7yTTlMKmc9e/pkPcEs9VC33OKO9CLwuFKTjkAkfyH0pBnoHBuJm1AdaANWw7V9WLlWWUmfaQZ4yh7pf6ScFWXKYELLp8pjp0QQyIVC0ndp+lb3VN7iwN8+Cz99WNNuj9On9Hv8mTSpk+UcF4z65kgv9duD0MuDHYWBTNkVqh947DjTHtL0kfS39NUf5KHvJvI9nWfqsSX1UO8OYksXj0b9vbMJ+h//+D/PqDaNMwzONhicMi3nWsZg7AynDGM422GlwxllDazJk+DB6vbrX//6u8aTPiFpHHr0qEM5QLav8Kl8Rw6u9iavmhZXSH2mE5/Vg0EnG51BL40w6UyPgnPKlJ4Oy0DX7oR0RM758T0rQfTqeBDwWM3/0R/90btVnbpXP5JnsP7FX/x3VX2Pn4XqlrKsqzBlwb8G5+TBzmBvItHfLBboTwTZPNZI3ZI3afow2/T0YaYJDKzC8RMBCL91D+XU0zYcYaFH8lFHyr785S+/x6fq1/GfLdsbv/SPr33tay///o//3Tt9OXet8s1rE+MTGoJw2kRau4D4SNpO36068Gs9/VgZykn52mLbbJ0h29+xJWOS/JMvsmjHTqfOrr2yNjhXY5MJdVnPIKYTppKm6ew0+pHZMXkjl86QgwAH+IcczrBueZBDI6mrkAH9q1/96haW79FUO7Iy6xiQtQMxkSVO0tb0VnAWF17uFlIWadpuZoUur4Tw9cig+lI5BD4CPk/aNEon/5reC87wpD9yFKB821VI8ON4g8mPwclkzATCAGVScjLZ0g9/waeTwQqKSSPPVZOXNnVl1BH0WSXXIK3+7GhGxxwjnsocQYIO/Dt78KX94yj/xKcPGCdSjmnaYutJXlt4OcnIW5i2dDz2ZFifttguCbVF/E7WTFkbnDvCThBBjNVRKmaahqCz59PxsH6rDhw6fPdiAnkG6D0eyhIyEFlJ2njqTsAcPUdljPhQzk5CmUIGZa6y9uTtBWfo8R38005WMwbNTseR3FG59tSVOTKZpFNWx6Mrq3oZnLUjV87Qc8bYrdKwnSMEVtMEzRlZyhZXyNEd9qiD7UaeoFp3HPLpoDy7OoI0q/gqB3msymcmkY6vZcq2b6QdpBnX3S5SOvlUuFcPTyfytI30aBGXPE0LUz62wKfype07W5J2Np1y0xb9J5yxZU/mMDinEiMmrEBURofQcX2LPqKjvONfy2qeFQMv7qpM8qywR3y39GC7Ij8hthA461P1qfV7+aSn8ZCn34QZxPb4Ub8XnDv7GPQzu4PU17RQ3WqeNsrbH9pFvxh12BEvy4UGZ9uJwah8Vr6sKq0TEsi2+qP0yuigOOivPfIHEsg46hGv49GVdfi1jH7dLUqw9cgk3sknwGuPEHtYYVY9ar7yo77i1Lw0dbetbGzaekb8oGEykw82mOYdwhYdtNYLt3SoddUWZdNXK7+ar7xqfhicRUyGmeY+LIrkHwo5ABNXXrMwaTMtfbeiYPCPtnvSjSDXqtIO0862nQ4jXpZv0RBQu5cVvvRJ2lFaOV1wNhgRsOpbd+4m8yTfzFue0LQyE9+yxCHNoNCPQnYFud2XdhZ2wRlaBkgGZgcmZ7SsplO3WVniSQufepSBnC6QQQudtPIawT08Aj/HJfgRmWmfska8t8rRXZ62kS9E93TK+prOfJWfdexQlSt0DEgnfoXUW0ZaW7QHH7F733qSfguPOnAT37SwHk8iH1usF+7Jyfrd4CxyMuc2gM7UGQwcZq+tJ3ls4VG3h8uLBmWrC9ulW596gwHn5hHDnj5bcqUVEjSq7jSu9dX+LK9yuuDsS4na+Wtglm+FyrC85i0XWl9hDdD4lN1W9+zxgiaDM7w4R+fxLNN+AGTC9ZG30PIRFE8IXu7YlEMfrA80SWdaWPHNd/WWAZnU8gUn9qNHt8OT5xZk1c2CRluATHDIUu4WfVd3lI5JNW1CB47FckegnC3enS30FZ6km0nPyBMnIby1xbbBv/csRjaDcxqjIqzG6rkiQYwtUocv3VadOB2UTpg4BjkaVYf8/u//60SZSsObBnY1Ky+gwaSTP8W8IKGfA0I5NCpB9panC87ciKE9lAPMQFJtMS+8RQ9oOvrunUSeFY/oOh0yOGMTR0DsltJO0nnc0enUlVV5icM7jSqjW5UlTWdXra8yu3zSYGu+I6H/8HfLjpGXVthkHyTt0eCeHl19V6buwg6nO3Y70j/grS22ETb5Uk6ZWzqIswf3eKQt+tX3YXu8u/qp4JxK5WpMBTwnTbxO2NllBCYDqg1D52UL6lN1qnnwLOMLN/kk5M3+6JF2VJ/lBM3kSxof3nJeKV+Ds20BT15a5TaPHcURPeV9K0xZ3WTOGSqTYeJleiS3BmcGYF2d123xiNdsOfp3K0zoZ3SelTOLx67IPmSbs0g5qg99Wj5AFgiv8eBDXxCqD7eVjjzYoi/gQUywbYRH+N2Dm7ag01FbUvZmcAYxjeMMVgcKXZElXgq4Ok0gUhcbiOs0Rx/1d5UkL3k7AcFXXGXUvOVC6nkBVycSeHs+LO5RaHBWT/SmTTxrJk/w59nT86jsLfyUhY3qJ+QuqjgVjvjW4ExgZtcmz7yjPOJxtBxfyh9f8ud7laO8zsLvdoz10/k9Wfgq7WLR9ejHdnfMqY+Td+ojrjDrso3g4WQljjRCy6+AM7bMyt0MztUYzt3onDqRgQFOxZsVfhZenhejHysdV897unX1nmFWW7uzsFkbUkf9d0YwyeCs7QRmdWcF/RpP9SsrCnXCfgbg0fO4GpyTH/zPfniHQl9KOS5GlIWd1VbrzoKVv6v51KsGpD3ZvNBP+lsWNHsyturTJiY7x4TQH9RKvEwnb9okbeHe9tVPpwtlnS3eEz+q0zA4V+EITQfgxHvOU44q2uGrow5J/Y6cPctHGeR9O46d8uX8ueImTZemjK22nU7IfdwzngzOqavpW84jz9ALHukrdh7qpD+PvszK4CwPIX3g7McvzWwzjsyYULRLeLbc5KcMoXX1thR+8O6zOFsw6aHF1kc91Rb6cO6A8DfHN+IJq36Wpy3QXj3RKDf1sUxb7JfowwUKHnGSbis9DM6VqG4dWJ11d2WPKlDlzORThun8ihCHZPATR4iMTHd5jgJy1aSzPX+WXqjeNc+siT78yQO+NWhCV2nluQVrcFYW8OhqakvOrXVpUz2Po42sr7CTl8E57fT6V0dza1l3DEUQqI961/Iz850MPvBKH5DOq1t78mtAu8KHezpkvR8POUZmFn76pcamfFkrjjBlXpWuthxdhKjXVHDmykud2brZ6ZEOwICU132enKupxNV4y4SWy9uXL3YYB4PblI4ueXg3Frrk4VW3PfrkNUpvBed8+36GrJEOM+XIp43SD/jF83B47OnYBWf41YluRp89HF42wlt9gfWL1z0e99bv+cMFiToeOdqpLwRzMXOv3rfQs1PVDieaWT51Zwqv0bPn0xFdLU8+NZ27bmxxQVd57OWngnP30m0U+FLRPeFn1Cuvu+vI0Yb1CU1X+V05kxAOzj8mqu78udIfuRtbdZnNj4IzOnY7m1m+Z+GlT/CZLyr155HbFRmcHcj4WBnCM3TP2y7I4hPg7jlTZvKf4cuVM/0IRM/Zo428fgYdfzmmU5dHpNGHe/iMWf7QJX2Q6apP2qIfqi1b9JXfXl5eworf2QLOCL/Sm58Kzv4wih2hm5mOClaBM6CyORNWRyAv4XisT1ld2QjXFUry3jsy8LySTi9dN8DVQ5g6zqRHwdltavLN9AzvK3DyKiZ+OXKPPIOzPj1yJ3bWHnaK9WbNkUlkVs69eKzks3/hE88393izq6u0e316j+dr1WMLR4X2CaBj/yqdZsbSDM6Wfm1wrkzzrBDDWU1WnC0hj6rL7Q0djwF2xuoxjyew3049GrB5Gd0Ow+0E3rKf/YyC8+ic6zXaTZlAgqn+wzejdxedn2pwhk8ei3Q0t5R199FdiWnLLXyvoMktNP6ot0m2ZOZEaZsceZG+xfvRdWmLY46V+BntdQaPW/zRBudk1B0XEHx4Xkvp1C/TefxiEHVQJd5MutrGgLUD2/hAbiGAKz4BuG7dwdNnM7KP4HTBGT09F5eX+pl/FKxyCabVj16b2tOpBmcm3yueOoFcJecM3T1+0acc8+w9tgljI/uyPGpQEz/5dmVZT3oGp9LM5uGd/Kst2uVPFiTfpOvKR/WJ+4j0MDirYAY8Gq/eNBDvEcqOZKgDL4bq9ubMl2+sKmx0OzJnu16vQo/6uTJ43QcXI1uOlnfBGR94Jq5vjvI9G1896o8U4c96NDGSbXDW9/VqozJG9F05NNIJ8wMN9HO7b33H59Fl6pJ9El2ZSKyb0akeWdq/Cfp5fp08Z9Kd7KTr6m8pS575fsg+gj3VFuVIW6H1CWdwEv+M9DA4y7x+8eKPo1gvRHkNsOyRUPl0TjsYsJs579Gr2z65WqlvwJHvmeo9Mrdou+Dsm/fXbI/UuerBeWAOnu7mT9KbNjjjV+iPbOHlsQXVs06w/IiSdVv0j6pLXerLMCZmdm+JU/XKOtJ+dJXjhjQ7QNrm6NGR/CtED8uqTvfm5cu7lmoHeY4VsWVvJy2f1Kcry/qr0pvBGaWcjRxMBqJUONNXKdrx7eTW8/FbL9d3vNGB8gwSNDy+YXVVV+1MFK5gO/3PKOuCMxNIPiNbEueK9Ehudy91hJt6Vb97RSlpM520e2np6i+l0bb++p04e7weUa8u/KSCY9OgtBeA1E8ewDrOkydpJlT80F0nTD6Vt/lHwbRFfzhGhdpy66TzKFs2gzNK1JmIRszHhqEs04lzZVqZwqpv9+HAnj7yEs+8MM+3shPb+JY94ty3C875Wbg6Y0umte1RMGWzm8mBw22YrB/pVIMzu7qky/SIx1Y59Gzl850Bbckgvpf3ltx761gVpj/9HRh1Fu7J4aZH8rIf26+FtBfjCnx908mgrCvf0+NovTKE0KNbtmP6xzT2YQvjJW1RvvyElI/S0pwJh8FZJZhlNAbIlpkA+Ax/nCVVPXIA43zqfbTJ/B5M/ExD50cv6ZtM19sSlX5P9mx9F5zzt4xn+TwSj4GQA9+PJ/Z8lG2Lr2fPqmdsU7YTb+rHrqj2s9fO2/c5kqg/4du9fMY+bdzyB5MTO5u6C8y+TTr9w1EnerCTYUHiWbXyhFtyz6xTHr+Noi2pb7Ul83u2oKf8z9S54zUMziJzNzeVN90Z25WJfxXck0knvvexMSrkZUonH5ni3it7j74Lzmefs+/pcLTeq4b6jqA7c+VxFJzP9DWrTvUSXtV3z+Db6ZjBufONZcKu/Ti+4Eiw+nxGZwI7izjGAddNmfCuPt6btUV/VTiyK21hXHGMhC1b8jp/3lK2G5yZSVBcY0ZGPGt5fmd/i4OksTGElI9epFz9ElCdgF1wZkCknon/DOn6Emv2bL4GijNXzvql6vYW+31+to9dt/YF6Qj2HGdyp/qoP8TnVhPjhQA3+txeebbFPbonj0zfY4sxTlsYZ/UMPm3IdOowm94NztkgOJo/ZpO38nfLmXN1nk4WUt/dzLAj0ohn3ySoOpkfBWfrnxESAPUV8NHBOdux+sdVvQMR+Fb6unp65py2bdmceKO09AQjzvrp3+yqOdfNtky/kbYuyynjR+g5GpTvSC7lMzgd/R4dk4S2cEMnz6g7vdMG0+Bxbq0tyKxya77TtSubCs4qAuQslas6b+WP4HXrk07NdN79xic2pFB/cbZ69fNWg3P67dHB2TahTbNdKSc4245ABiwvvejvfCn6Fvp9tUl7j8BZHmzx8Q/fE7C6ZnXs/9JzHOhP89n27MwZJyN5tbzmZ2zqaCizXKgt6FNt6WxIe0hji/88Q54z+o1w2uCcinN2lM5khnhLj06qcM8G8Ste/ZTbBmKLQ5AxD2QlU7c9ld+9+ZngnLZk+l7Zt9LX1SnHFTOT6COONZx4HYwE56vPS2/14wxdtnemj9JWfHkJs562dIXNi1ODtT7NMWKaiwe+SExe96bVT3iU38gW9e4gx5rYokzhUdltcE4m3GtOBZ79JkDqblrnCC2fgZWGLUz6gzRbPPD8iVHK6Ij8MZvKQzgjdxanC871uqO8rpAv7yOQlYk+xEfe1tjjcWVw1jf8u6caRGbvDe/p/+h6bUKuaeGMLuIKZ2g6HCY3jlo4YqQNq3/tC5zldp/y3yI/aTKtfrWs5sVLCI62MOaddNQ/obbM8E0Zmd4NzlwjUihOfcS/gEkF70l3junK9mRIw8SUviBNYLEePt1Lwitvb3TBOe8579n2GvXsMnKAMuHNPFcGZ+TTjmzRUzfamOth2cYzur4mzlm6wkdews6urm5URnDjaJTAVv1MnnvWrqA7Hp38UVmlH+Vr+YhfLdeW2i+NEdgyevlZeXX53eBcf2egfn3WMf3/sYyZH6dnh+LYojo/vzATF3jVcVAXnG2jWzvd1e3HqsMOjG+Y0Hy2dK6D4KzbGimT30lh1WPboae/z6KOf99g+idtH5UnjumKS7/lqp5+FuJvLiEkvmmhPLeguMIt3K26Sp9509jCbjVtsH9jy63PbnCutxJ4q/nsj067V0/5jM6ZuXXAI57yWGnZUAmvOH/ugnNdzavXs8D6YdPsbuzs4Ey71bbDR14fdYDxRn8913iARU9+lajPuXKXbZPpazS5jWvqhS1540Nbbr3auhuc83wQYawq/BU2zUkFLXsErHJrXh1G5daPoHT13B0/1IAirrxoEBtHmOfP4gkrveV7sAvOdJD6Ucet/PfkH61nZ1GDbP2acsSz0p21cq7y6uRxxnXMKuOe/JG23MPdq79Hz1lazvRrgPZF7J5+e/WzOtyDlzpUW1icactRGZvBGaEIM7gIu0N7BKeSRxU5C5+Jwz+uPREMqm5H9OSc2dWv9tf/aCI/obbw1lYa4RlfLMof2AVn9LWNqk5Je1VamULlkLc/pU9Zccw8jwrOdYvqC8tqz4zOV+Ogk/2dHR5/M8+z2KIeXEFzjADpHywM8xE3y1473elUF7SdLTN6t8E5BRLcWC2n4/K/JYCb+DNCz8DpZDLIvYgPRG9fLoxkdnzErVe+8AEzPEHfZ4ueQaPvMhh5YT15bPERr4NdcEbPKqOjfY0y9Epf0E74aeZ5VHCut27QMdt8RtdH4XB+n30+f0sGHbJfkeYojrNeFh38eTT3KH1HctCN89mMM9qSNiQ9X0JqBzY92paRXuioLfZ1bNnCT7tMt8HZSmHe2MB5bPM7QV2ZPK6CKZMVTzbuPYfxrEA8P9LB8D7aAZgwUifS8PP8OfW/xUej4Nzd2LhX1hH9RrL8PWx9WnchWzIeFZx5yUvAU0fazI8LtvR7VJ2+BTL5p54cp/mIR940O7fsj0f8L9+zobrV91t8Y0Gd9SmXMvp42u4OJ/GuSKtPhciyDFtSN2w5+rTBWQEy43A+G5SOyy8+iScU/zUgOjhbqavnwtR1Om6V+YPr6WD5HbXPTpe8CDQeuRzll/ij4Az/Z3n0PxNePVvMO9lde6QNjwrOyGSg24+ALFCe7WHizz6FnvwwD4++FKp7/c8pBkDrXxPWnWr37iRt411FttFr25K+7j5mOurbNjinAxDI3c90Amlf4qRCmT6qyC34ygPSKVNHOi0OEif5WybMOtJ1BQ5fVhgj/EpvHnxp/HjFwQTMK2TQiCv9DBwFZ3SuA/VWGTN6dDhpD2luPWQbka53iJOm8nxUcEYHtsmpKwsSJpct/aq+V+d5UamO9Ce+UN3SjzqObOyD0PJzoxzZbNFdbYf8fR+hTejGXeLu0RZwtYc22jvG7HjdUpb+Ip15+GGLeulnyiveluxhcK6M6kqirswUKtwSekVd3a6x3SNwVTv2ZNfZGwfXRk8bTQtH/BkArhqz0bymtUc/4jsKzsjojjZGfM4u1x4h/OsVNT5EOPI8KjijUw0UDDB2QM/yELTqsRvnz3uPCy36h/3Qo7psqz0+V9TXD4C2bjmgK0eDBnLhI+6k6ydh5wt007/oxtg/+mwG52RWtxAIrI7YUjZ5nZ0m8KUj0G2mo6JH6gwfO7yN3dmp/tIKLR9BBkHyVWcCAc8sn+Q/Cs7IwZbZl23J84q0L9m0Gf3ySGNG5iODM/qwW8r2YmV6xlHUjK17ON1VTXYhew99rP4GjB8t7dFeXV8nRAJaXTnnGOlsecTxE3KrHtU3o5VzxdvKD4OzwoUMcld+dti6et4SdEadulRe9StG9MM5iZ/pSm/eowftA84GeXl0MGXnVlQ5+PHWQb8VnOHP9lz5wk7Hq8vqqhndfCk6K/vRwdkJxXYC1tXzo32KPNrcW0DqduTld/2JASbM+qUrbZK2mRbOttkRvLp4YXGBraMHXbgFoQ+AnS1X6py6pRxukqRe2HL0GQbnjlG984sjKHvkowOEOdu6KuMjAh/xRnnLsSOdSbq+YKi8pD0C4dEFqtHqJWVmWpkZnLGfI5j8t0XkeXlbH3kJa/2Z+frmGt+mvbM6PDI4oxN/VSb+JJClzpk+02/w6ng7wdvf8Sd3azvcTp8MgvKwPToeXVnH996y+q5n5oZD2uL4fcTqec/WtAUfM3ke9WMbnGUiVBECATOADaoz6ipVfGHyybT1W1B8IbimgRno1At98kn8pDftm1XtARLgXE1Inzz30ls09TxKub5k7XiP+GVwhg/Bg9U+7SRffth8RK8Ptuo7fSzboqOuvqhFJ9qpBrgZfjVQXvWFoLoAu8GfV7a27E8+R9JbPLurma6at+hSPnj1aIM2wdZ8Kr+aT9xb0/IE1l956z7YEl957Di7H1Ea2VLp5XMEbvGgjj9tMSZ5Z/uInDY4VwapTLfVY4tVzzaTpvI7Iw//+seus9kAAAo3SURBVBKQgT96CTbSZ3TObOOO6I7Y0PEgsBg8bUDydWJJOR2fGpzhwQBmdZV8Od7Yezr+Hc0Ir5bjW7ffqUseDVSaTp5lrxGckd196TnqZ+p6BWQHpD/tO7b3UXn5MZBtw4Q+uu1gOwmPytvCh6dn6OqCXY5BaVN2pusXedBqS+JlWp73QPkJ5aUt2Ub1/Zy4W3AqOCcDFPGcJx3J7M1gTEUznTyOpEc86rYBR7AaIFj5SCu0PGGeM2vP1n3mLV7Jl3TFrXnO/pRpQ1Yb9nh2wZkXQ0yW8Ez++WVnp1+VdSRfbWOQ565GXXLVeYQ/uI8Ozto0msBrPxH/qF0VP/mYpj2rP/FpvhMRt/Ib5Tk2yP4BP1Z89RhMvsIRv1vLu/vajIO99zCpT71NlrYk3q06ztLdakvH/3BwhgnGEowdcED+GDxbK79OgVFZ51DL8gVgdq7uXu8W/3qXFRvyV/eUJxzx2irfoh1tyUZnZh2vLjj7mwQED9sGiK9cQctLuGXD0TrawW1ztg8vlLuV2awOjwzOVad6nKBdLFT2gshR/4mvDhyD1fGG/Py6T1xpZ2Aer2kP/YQAffRl7Yy8Dge/chRn/7S/umqetSttkccjbUHPtCXtuWXVjK+mgnPnIGbXbgDSyHl2mrSZ7hpqr4wG4Pw0nW+6O3/cktfdZyZ4sEoaPVv8RjR75UxmOTBM60NlVijfLjjnp8bdioKXP12QlOetEB39mlQ7bB/y/hhTx1/7ujrLHhWcU5dM149otBEfuzBQ17MgE229JYVPGXv2VXUUzsgWt/7gkO2FzAwq4s/w3sORl31FmcLuyEiaEURmd7xBG2GLC5Y93W6t764aY4/n5up9hP9UcB4x5KVOF6BRiuMCAuAZD52QFZ8zLPwdGKTz9wRm5DGxdB2+0/cWp87okDhdw2YwUwdh0nbB2Y4IPr6rQQ2fYT9nv9Cf8bDSqfeCbSParfPtUbnVjm5CPsrzKL5tpW3ZFzli8CXyUb4Vn4mMSRT+9Y9zZz7YuPexPzHppD0pj12c96fFv1cufYH4oEwhcruX18oVbsnPdzlpBzLSli0eR+qwZbRgxMZ7npuCs04CEuhYOaSD0ykoSLA42mm5fE6noMN3L0GQgUwHaOrUOcR66gwiqXOe3XX0V5fV3xDGPraX9XeZqx5bwRlc7CZA1/NKbSfgcX7Pyi99VOV0eXYy+B9/yi/bnjSTt4O747FVpj7CUXCmXpwtfmfV8TItFwr2RSC3fFj5YXP9gGJLPvozRhgr3QtI/co5Mbues+2lHUdtiGx0wu6j4xib+eydyYbFAPprS4VMRmfYNWvLLUc3nP3P2MJE4HFX2pTprf5A3U3BGcIUQgDx7mV1uA3OSo1fswOPmZqVFn9snUxTzjkphnkVpfIzzxmcgz51SYNrOfl8kQgv9IMXdRU/eZ2Z7uQwkLtJCF9sPVvBWTlAOtVoJZY+BQcfMRBtF9sIyEtFgg+Tbg1Q8hGiOxODemzZMapLWvqE/QnIIMz6EY8ryjmO6o6MtB39mEzwQfVn+pVdH/5k9bXnT/DoJ9osPMs+xlOdxLVHiI7oii70BfuGNgE5KiEQg8OYd3ctD6FtSf7s7yUIoJ7Td/Iowxb6sbakDabTFiaoGVt8r3Nvu9wcnDvBLPFdleoQYDaC+VpmedJlWnyCPJ19b0WpfnZgYHefmQbK1YD40l8JlSVEP+1M2zmb4xEvddoKzpUGeoJurkCrvJpXj1pe8+IB4e/Rirp2uls3C1Nv5BCcec7gPatD4rEyIgjlnXL02vINdVmf6fSh5UAmAYJFPmfY3PGgPzG+GBfqkHrtpY/SsGM86xJB+od02qLeVT/zQvH2oPhC8LGF/97Oo2+FVbeZ/KnBWYF0pC5IY0Aas+UA8YD8sWpidp19kVWd0l1xQb5BpOJryxUwZWUaWQyMzi8GoqrPkeAsLTTwy5Wf/u5kUzaqz3L4wdeJs9qm/Fth1ePou4Zb5Y7otI+jPdpttKrqfKrfhBWHclZ1rEx9lGf+XrjFjy3/rE0jG6pN5llgcY2UxUg+W/ok3pE0PFl8VVtmdE6cTGsHkGOszhZ0vNeeU4LzSAm2SSzxCdT5SXFnaC0Dn8HOMQffqY9kdE7ocFnVowsD2r+81XCkwa/ATZ3ZLqojkNXZrcF5S1dksv2j49JGDJrseKO0bQU+AYRJc+uIKW3b0mevDh+kX1hxncV7T3at7+Qy6THZc3THYoLVJz7EX/rMfPUt9azAWX1hIy/8OhldWeq2V5+4ma505tkdsNiijzAet/rIyEZoOGvmvQ5jjqMuH+Qoy7IzYMdz1paRHbRZ2sIuNG1JvZUvpC7TiTtK3xycZwQlDi8FWL1iEMGGQFn/6JR0bgZ6Z3TyGxlkeeJm2vqE1guz7up0ysx0yh2Vg7O3ck4+pLd4+bKDNqAtGJDZRuQpZ4AR1Ov5Z8e7K6s61fyIxnKhdOaFlr8mRBdWbCwKeJfCBFZ9Sd5zWyYadxxX651+Im1eiHzTFTKOGZ/2kbTJNLb6Xgm78sVo5VfzZ9ku3xE/6unve7ZgE4sCJqhqyxbvUd2R8puDcwrpHNGVJQ3pW3BGNFle05mflVt1vTJf9RvJ6vCOBmd5y0to+REorfAI7VFcZVSYfKzLstdMd/p0ZWfpeIQ3uP4hv6OtZTU/0rvD68qk36oT5xa4x7fWZz7Tt8iGJnlkepbfKcF5S1hVquaP0G7h1ro9OXv1ld/V+ZE+lgurHrcE5xGvyvtI/gqeypd3hdYDrcuyZ00f0XUGdwZn5It7aG/1uzKFI93uKe94d2X3yLia9vLgfLUBf9/53xKc/777bNm/PPAWPLCC81topQ0dV3DecM6qWh54wx5YwfkNNx6qr+D8xhtwqb88MPDACs4Dx7yV4hWc30pLLT2XB455YAXnY/56OuwVnJ+uSZZCywOneGAF51Pc+HpMVnB+Pd8vycsDV3pgBecrvfsA3is4P8DJS8TywCt4YAXnV3D6mSJXcD7Tm4vX8sDzeGAF5+dpi5s0qcGZ3wXg09r1LA8sD7xtD6zg/Lbb772rdP5gSxec+TrqrX0h9cabZqm/PHCXB1Zwvst9r09cV878cpbBeQXj12+fpcHywK0eWMH5Vs89CV0G562V85Oou9RYHlgemPTACs6TjnpWtAzO/lbwWjk/a2stvZYH5j2wgvO8r54S0+DsqjmPNZ5S4aXU8sDywJQHVnCectNzInGm3P1jWP6hQZ43Z/o5LVlaLQ8sD1QPrOBcPfJG8gZcVs78l2H+fQ5//Huv/L9zb8ScpebywPJA8cAKzsUhK7s8sDywPPAMHljB+RlaYemwPLA8sDxQPLCCc3HIyi4PLA8sDzyDB1ZwfoZWWDosDywPLA8UD6zgXByysssDywPLA8/ggRWcn6EVlg7LA8sDywPFAys4F4es7PLA8sDywDN4YAXnZ2iFpcPywPLA8kDxwArOxSEruzywPLA88Awe+L9Lx5FMeb39eAAAAABJRU5ErkJggg==;" parent="tmh-D557QrPGJzhV4SVf-1" vertex="1">
          <mxGeometry x="975" y="338" width="69.71" height="20" as="geometry" />
        </mxCell>
        <mxCell id="IyH2yJy_CdPDOLWACVlW-24" value="" style="shape=image;verticalLabelPosition=bottom;labelBackgroundColor=#ffffff;verticalAlign=top;aspect=fixed;imageAspect=0;image=https://miro.medium.com/max/768/1*gsip01SgHz6exfmtsI31fA.jpeg;" parent="tmh-D557QrPGJzhV4SVf-1" vertex="1">
          <mxGeometry x="415" y="471" width="68.01" height="34" as="geometry" />
        </mxCell>
        <mxCell id="IyH2yJy_CdPDOLWACVlW-25" value="deployed via" style="edgeLabel;html=1;align=center;verticalAlign=middle;resizable=0;points=[];" parent="tmh-D557QrPGJzhV4SVf-1" vertex="1" connectable="0">
          <mxGeometry x="398" y="483" as="geometry" />
        </mxCell>
        <mxCell id="IyH2yJy_CdPDOLWACVlW-28" value="&lt;meta charset=&quot;utf-8&quot;&gt;&lt;span style=&quot;color: rgb(0, 0, 0); font-family: helvetica; font-size: 11px; font-style: normal; font-weight: 400; letter-spacing: normal; text-indent: 0px; text-transform: none; word-spacing: 0px; background-color: rgb(255, 255, 255); display: inline; float: none;&quot;&gt;deployed via&lt;/span&gt;" style="text;whiteSpace=wrap;html=1;align=center;" parent="tmh-D557QrPGJzhV4SVf-1" vertex="1">
          <mxGeometry x="654.3011907958984" y="530.8328015136719" width="80" height="25" as="geometry" />
        </mxCell>
        <mxCell id="IyH2yJy_CdPDOLWACVlW-30" value="" style="shape=image;verticalLabelPosition=bottom;labelBackgroundColor=#ffffff;verticalAlign=top;aspect=fixed;imageAspect=0;image=https://kubernetes.io/images/kubernetes-horizontal-color.png;" parent="tmh-D557QrPGJzhV4SVf-1" vertex="1">
          <mxGeometry x="643" y="553.38" width="98.6" height="21.24" as="geometry" />
        </mxCell>
      </root>
    </mxGraphModel>
  </diagram>
  <diagram id="jNsKV1c-_8GDwIXnJQkx" name="v1">
    
    <mxGraphModel dx="1296" dy="903" grid="0" gridSize="8" guides="1" tooltips="1" connect="1" arrows="1" fold="1" page="1" pageScale="1" pageWidth="850" pageHeight="1100" math="0" shadow="0">
      
      <root>
        
        <mxCell id="0" />
        
        <mxCell id="1" parent="0" />
        
        <mxCell id="x_blu2pq1rbYdd1YHIHq-1" value="PHYSICAL HOST" style="rounded=0;whiteSpace=wrap;html=1;verticalAlign=bottom;align=left;fontStyle=1" parent="1" vertex="1">
          
          <mxGeometry x="60" y="280" width="720" height="230" as="geometry" />
          
        </mxCell>
        
        <mxCell id="x_blu2pq1rbYdd1YHIHq-31" value="&lt;b&gt;DISKS - DAS + HBA - Binary files and databases&lt;/b&gt;" style="rounded=0;whiteSpace=wrap;html=1;dashed=1;align=left;verticalAlign=bottom;" parent="1" vertex="1">
          
          <mxGeometry x="329" y="381" width="431" height="100" as="geometry" />
          
        </mxCell>
        
        <mxCell id="x_blu2pq1rbYdd1YHIHq-16" value="" style="shape=image;html=1;verticalAlign=top;verticalLabelPosition=bottom;labelBackgroundColor=#ffffff;imageAspect=0;aspect=fixed;image=https://cdn0.iconfinder.com/data/icons/30-hardware-line-icons/64/HDD-128.png;align=left;" parent="1" vertex="1">
          
          <mxGeometry x="607" y="401.43" width="50" height="50" as="geometry" />
          
        </mxCell>
        
        <mxCell id="x_blu2pq1rbYdd1YHIHq-12" value="" style="shape=image;html=1;verticalAlign=top;verticalLabelPosition=bottom;labelBackgroundColor=#ffffff;imageAspect=0;aspect=fixed;image=https://cdn0.iconfinder.com/data/icons/30-hardware-line-icons/64/HDD-128.png;align=left;" parent="1" vertex="1">
          
          <mxGeometry x="527" y="401.43" width="50" height="50" as="geometry" />
          
        </mxCell>
        
        <mxCell id="x_blu2pq1rbYdd1YHIHq-15" value="" style="shape=image;html=1;verticalAlign=top;verticalLabelPosition=bottom;labelBackgroundColor=#ffffff;imageAspect=0;aspect=fixed;image=https://cdn0.iconfinder.com/data/icons/30-hardware-line-icons/64/HDD-128.png;align=left;" parent="1" vertex="1">
          
          <mxGeometry x="567" y="401.43" width="50" height="50" as="geometry" />
          
        </mxCell>
        
        <mxCell id="x_blu2pq1rbYdd1YHIHq-17" value="" style="shape=image;html=1;verticalAlign=top;verticalLabelPosition=bottom;labelBackgroundColor=#ffffff;imageAspect=0;aspect=fixed;image=https://cdn0.iconfinder.com/data/icons/30-hardware-line-icons/64/HDD-128.png;align=left;" parent="1" vertex="1">
          
          <mxGeometry x="647" y="401.43000000000006" width="50" height="50" as="geometry" />
          
        </mxCell>
        
        <mxCell id="x_blu2pq1rbYdd1YHIHq-18" value="" style="shape=image;html=1;verticalAlign=top;verticalLabelPosition=bottom;labelBackgroundColor=#ffffff;imageAspect=0;aspect=fixed;image=https://cdn0.iconfinder.com/data/icons/30-hardware-line-icons/64/HDD-128.png;align=left;" parent="1" vertex="1">
          
          <mxGeometry x="685" y="401.43000000000006" width="50" height="50" as="geometry" />
          
        </mxCell>
        
        <mxCell id="x_blu2pq1rbYdd1YHIHq-27" value="" style="shape=image;html=1;verticalAlign=top;verticalLabelPosition=bottom;labelBackgroundColor=#ffffff;imageAspect=0;aspect=fixed;image=https://cdn1.iconfinder.com/data/icons/computer-hardware-line-vol-2/52/storage__ssd__card__device__data__server__hardware-128.png;align=left;" parent="1" vertex="1">
          
          <mxGeometry x="423" y="406.43000000000006" width="40" height="40" as="geometry" />
          
        </mxCell>
        
        <mxCell id="x_blu2pq1rbYdd1YHIHq-28" value="" style="shape=image;html=1;verticalAlign=top;verticalLabelPosition=bottom;labelBackgroundColor=#ffffff;imageAspect=0;aspect=fixed;image=https://cdn1.iconfinder.com/data/icons/computer-hardware-line-vol-2/52/storage__ssd__card__device__data__server__hardware-128.png;align=left;" parent="1" vertex="1">
          
          <mxGeometry x="366" y="406.43000000000006" width="40" height="40" as="geometry" />
          
        </mxCell>
        
        <mxCell id="x_blu2pq1rbYdd1YHIHq-21" value="&lt;b&gt;DISKS - GP - RAID - HYPERVISOR + VMs&lt;/b&gt;" style="rounded=0;whiteSpace=wrap;html=1;align=left;dashed=1;verticalAlign=bottom;" parent="1" vertex="1">
          
          <mxGeometry x="70" y="380" width="250" height="102" as="geometry" />
          
        </mxCell>
        
        <mxCell id="x_blu2pq1rbYdd1YHIHq-9" value="" style="shape=image;html=1;verticalAlign=top;verticalLabelPosition=bottom;labelBackgroundColor=#ffffff;imageAspect=0;aspect=fixed;image=https://cdn1.iconfinder.com/data/icons/computer-hardware-line-vol-2/52/storage__ssd__card__device__data__server__hardware-128.png;align=left;" parent="1" vertex="1">
          
          <mxGeometry x="149" y="411.42857142857144" width="40" height="40" as="geometry" />
          
        </mxCell>
        
        <mxCell id="x_blu2pq1rbYdd1YHIHq-13" value="" style="shape=image;html=1;verticalAlign=top;verticalLabelPosition=bottom;labelBackgroundColor=#ffffff;imageAspect=0;aspect=fixed;image=https://cdn1.iconfinder.com/data/icons/computer-hardware-line-vol-2/52/storage__ssd__card__device__data__server__hardware-128.png;align=left;" parent="1" vertex="1">
          
          <mxGeometry x="104" y="411.42857142857144" width="40" height="40" as="geometry" />
          
        </mxCell>
        
        <mxCell id="x_blu2pq1rbYdd1YHIHq-25" value="" style="shape=image;html=1;verticalAlign=top;verticalLabelPosition=bottom;labelBackgroundColor=#ffffff;imageAspect=0;aspect=fixed;image=https://cdn0.iconfinder.com/data/icons/30-hardware-line-icons/64/HDD-128.png;align=left;" parent="1" vertex="1">
          
          <mxGeometry x="233" y="406.4285714285716" width="50" height="50" as="geometry" />
          
        </mxCell>
        
        <mxCell id="x_blu2pq1rbYdd1YHIHq-26" value="" style="shape=image;html=1;verticalAlign=top;verticalLabelPosition=bottom;labelBackgroundColor=#ffffff;imageAspect=0;aspect=fixed;image=https://cdn0.iconfinder.com/data/icons/30-hardware-line-icons/64/HDD-128.png;align=left;" parent="1" vertex="1">
          
          <mxGeometry x="188" y="406.4285714285716" width="50" height="50" as="geometry" />
          
        </mxCell>
        
        <mxCell id="x_blu2pq1rbYdd1YHIHq-32" value="Hypervisor" style="rounded=0;whiteSpace=wrap;html=1;dashed=1;align=left;fontStyle=1" parent="1" vertex="1">
          
          <mxGeometry x="70" y="330" width="690" height="40" as="geometry" />
          
        </mxCell>
        
        <mxCell id="x_blu2pq1rbYdd1YHIHq-33" value="" style="shape=image;html=1;verticalAlign=top;verticalLabelPosition=bottom;labelBackgroundColor=#ffffff;imageAspect=0;aspect=fixed;image=https://cdn0.iconfinder.com/data/icons/30-hardware-line-icons/64/HDD-128.png;align=left;" parent="1" vertex="1">
          
          <mxGeometry x="470" y="401.43" width="49" height="50" as="geometry" />
          
        </mxCell>
        
        <mxCell id="x_blu2pq1rbYdd1YHIHq-34" value="..." style="text;html=1;strokeColor=none;fillColor=none;align=center;verticalAlign=middle;whiteSpace=wrap;rounded=0;dashed=1;fontStyle=1;fontSize=20;" parent="1" vertex="1">
          
          <mxGeometry x="502" y="426.43" width="40" height="20" as="geometry" />
          
        </mxCell>
        
        <mxCell id="x_blu2pq1rbYdd1YHIHq-37" value="&lt;b&gt;Extraction&lt;br style=&quot;font-size: 12px&quot;&gt;&amp;amp;&lt;br style=&quot;font-size: 12px&quot;&gt;Anonymization&lt;/b&gt;&lt;br&gt;&lt;br&gt;" style="rounded=0;whiteSpace=wrap;html=1;strokeColor=#36393d;fontSize=12;align=center;fillColor=#ffcccc;verticalAlign=top;" parent="1" vertex="1">
          
          <mxGeometry x="80" y="176" width="96" height="160" as="geometry" />
          
        </mxCell>
        
        <mxCell id="x_blu2pq1rbYdd1YHIHq-39" value="" style="endArrow=none;dashed=1;html=1;dashPattern=1 3;strokeWidth=2;fontSize=12;" parent="1" edge="1">
          
          <mxGeometry width="50" height="50" relative="1" as="geometry">
            
            <mxPoint x="325" y="512" as="sourcePoint" />
            
            <mxPoint x="325" y="280" as="targetPoint" />
            
          </mxGeometry>
          
        </mxCell>
        
        <mxCell id="x_blu2pq1rbYdd1YHIHq-40" value="&lt;b&gt;Computation&lt;br&gt;&amp;amp;&lt;br&gt;Serving&lt;/b&gt;" style="rounded=0;whiteSpace=wrap;html=1;strokeColor=#36393d;fontSize=12;align=center;fillColor=#cdeb8b;verticalAlign=top;" parent="1" vertex="1">
          
          <mxGeometry x="207" y="176" width="96" height="160" as="geometry" />
          
        </mxCell>
        
        <mxCell id="x_blu2pq1rbYdd1YHIHq-41" value="&lt;b&gt;Storage &amp;amp; Database&lt;/b&gt;" style="rounded=0;whiteSpace=wrap;html=1;strokeColor=#36393d;fontSize=12;align=left;fillColor=#ffcc99;horizontal=1;verticalAlign=top;" parent="1" vertex="1">
          
          <mxGeometry x="336" y="104" width="416" height="232" as="geometry" />
          
        </mxCell>
        
        <mxCell id="x_blu2pq1rbYdd1YHIHq-45" value="ZFS" style="rounded=0;whiteSpace=wrap;html=1;strokeColor=#36393d;fontSize=12;align=left;fillColor=#FFF4C3;verticalAlign=top;" parent="1" vertex="1">
          
          <mxGeometry x="344" y="232" width="400" height="88" as="geometry" />
          
        </mxCell>
        
        <mxCell id="x_blu2pq1rbYdd1YHIHq-43" value="ZPOOL - RAIDZ-2/3 - DATA" style="rounded=0;whiteSpace=wrap;html=1;strokeColor=#36393d;fontSize=12;align=center;fillColor=#FFF4C3;" parent="1" vertex="1">
          
          <mxGeometry x="472" y="264" width="264" height="44" as="geometry" />
          
        </mxCell>
        
        <mxCell id="x_blu2pq1rbYdd1YHIHq-44" value="L2ARC + ZIL" style="rounded=0;whiteSpace=wrap;html=1;strokeColor=#36393d;fontSize=12;align=center;fillColor=#FFF4C3;" parent="1" vertex="1">
          
          <mxGeometry x="357" y="264" width="115" height="44" as="geometry" />
          
        </mxCell>
        
        <mxCell id="x_blu2pq1rbYdd1YHIHq-46" style="edgeStyle=orthogonalEdgeStyle;rounded=0;orthogonalLoop=1;jettySize=auto;html=1;entryX=0.25;entryY=1;entryDx=0;entryDy=0;fontSize=12;" parent="1" source="x_blu2pq1rbYdd1YHIHq-28" target="x_blu2pq1rbYdd1YHIHq-44" edge="1">
          
          <mxGeometry relative="1" as="geometry" />
          
        </mxCell>
        
        <mxCell id="x_blu2pq1rbYdd1YHIHq-47" style="edgeStyle=orthogonalEdgeStyle;rounded=0;orthogonalLoop=1;jettySize=auto;html=1;entryX=0.75;entryY=1;entryDx=0;entryDy=0;fontSize=12;" parent="1" source="x_blu2pq1rbYdd1YHIHq-27" target="x_blu2pq1rbYdd1YHIHq-44" edge="1">
          
          <mxGeometry relative="1" as="geometry" />
          
        </mxCell>
        
        <mxCell id="x_blu2pq1rbYdd1YHIHq-48" style="edgeStyle=orthogonalEdgeStyle;rounded=0;orthogonalLoop=1;jettySize=auto;html=1;entryX=0.087;entryY=0.977;entryDx=0;entryDy=0;entryPerimeter=0;fontSize=12;" parent="1" source="x_blu2pq1rbYdd1YHIHq-33" target="x_blu2pq1rbYdd1YHIHq-43" edge="1">
          
          <mxGeometry relative="1" as="geometry" />
          
        </mxCell>
        
        <mxCell id="x_blu2pq1rbYdd1YHIHq-49" style="edgeStyle=orthogonalEdgeStyle;rounded=0;orthogonalLoop=1;jettySize=auto;html=1;entryX=0.902;entryY=1;entryDx=0;entryDy=0;entryPerimeter=0;fontSize=12;" parent="1" source="x_blu2pq1rbYdd1YHIHq-18" target="x_blu2pq1rbYdd1YHIHq-43" edge="1">
          
          <mxGeometry relative="1" as="geometry" />
          
        </mxCell>
        
        <mxCell id="x_blu2pq1rbYdd1YHIHq-50" value="... device passthrough ..." style="text;html=1;strokeColor=none;fillColor=none;align=center;verticalAlign=middle;whiteSpace=wrap;rounded=0;fontSize=12;" parent="1" vertex="1">
          
          <mxGeometry x="503" y="344" width="200" height="20" as="geometry" />
          
        </mxCell>
        
        <mxCell id="x_blu2pq1rbYdd1YHIHq-53" value="" style="html=1;dashed=0;whitespace=wrap;fillColor=#2875E2;strokeColor=#ffffff;points=[[0.005,0.63,0],[0.1,0.2,0],[0.9,0.2,0],[0.5,0,0],[0.995,0.63,0],[0.72,0.99,0],[0.5,1,0],[0.28,0.99,0]];shape=mxgraph.kubernetes.icon;prIcon=kubelet;fontSize=12;align=center;" parent="1" vertex="1">
          
          <mxGeometry x="214.5" y="241" width="81" height="64" as="geometry" />
          
        </mxCell>
        
        <mxCell id="x_blu2pq1rbYdd1YHIHq-59" style="edgeStyle=orthogonalEdgeStyle;rounded=0;orthogonalLoop=1;jettySize=auto;html=1;exitX=0.5;exitY=1;exitDx=0;exitDy=0;entryX=0.25;entryY=0;entryDx=0;entryDy=0;fontSize=10;" parent="1" source="x_blu2pq1rbYdd1YHIHq-56" target="x_blu2pq1rbYdd1YHIHq-43" edge="1">
          
          <mxGeometry relative="1" as="geometry" />
          
        </mxCell>
        
        <mxCell id="x_blu2pq1rbYdd1YHIHq-56" value="Dataset - PG-DATA" style="rounded=1;whiteSpace=wrap;html=1;strokeColor=#000000;fillColor=#FFF4C3;fontSize=10;align=center;" parent="1" vertex="1">
          
          <mxGeometry x="463" y="192" width="91" height="32" as="geometry" />
          
        </mxCell>
        
        <mxCell id="x_blu2pq1rbYdd1YHIHq-60" style="edgeStyle=orthogonalEdgeStyle;rounded=0;orthogonalLoop=1;jettySize=auto;html=1;fontSize=10;" parent="1" source="x_blu2pq1rbYdd1YHIHq-57" target="x_blu2pq1rbYdd1YHIHq-43" edge="1">
          
          <mxGeometry relative="1" as="geometry" />
          
        </mxCell>
        
        <mxCell id="x_blu2pq1rbYdd1YHIHq-57" value="Dataset - PG-WAL" style="rounded=1;whiteSpace=wrap;html=1;strokeColor=#000000;fillColor=#FFF4C3;fontSize=10;align=center;" parent="1" vertex="1">
          
          <mxGeometry x="558" y="192" width="91" height="32" as="geometry" />
          
        </mxCell>
        
        <mxCell id="x_blu2pq1rbYdd1YHIHq-61" style="edgeStyle=orthogonalEdgeStyle;rounded=0;orthogonalLoop=1;jettySize=auto;html=1;entryX=0.75;entryY=0;entryDx=0;entryDy=0;fontSize=10;" parent="1" source="x_blu2pq1rbYdd1YHIHq-58" target="x_blu2pq1rbYdd1YHIHq-43" edge="1">
          
          <mxGeometry relative="1" as="geometry" />
          
        </mxCell>
        
        <mxCell id="x_blu2pq1rbYdd1YHIHq-58" value="Dataset - BINARY" style="rounded=1;whiteSpace=wrap;html=1;strokeColor=#000000;fillColor=#FFF4C3;fontSize=10;align=center;" parent="1" vertex="1">
          
          <mxGeometry x="654" y="192" width="91" height="32" as="geometry" />
          
        </mxCell>
        
        <mxCell id="x_blu2pq1rbYdd1YHIHq-64" value="" style="shape=image;verticalLabelPosition=bottom;labelBackgroundColor=#ffffff;verticalAlign=top;aspect=fixed;imageAspect=0;image=https://seeklogo.com/images/M/minio-logo-4B2D780928-seeklogo.com.png;" parent="1" vertex="1">
          
          <mxGeometry x="659.85" y="126" width="76.15" height="33" as="geometry" />
          
        </mxCell>
        
        <mxCell id="x_blu2pq1rbYdd1YHIHq-72" value="" style="shape=image;verticalLabelPosition=bottom;labelBackgroundColor=#ffffff;verticalAlign=top;aspect=fixed;imageAspect=0;image=https://logos-download.com/wp-content/uploads/2016/10/PostgreSQL_logo_Postgre_SQL.png;" parent="1" vertex="1">
          
          <mxGeometry x="470" y="152.83" width="171.27" height="26.35" as="geometry" />
          
        </mxCell>
        
        <mxCell id="V3RfW-ZcdMEoPT3UrXx7-1" value="" style="endArrow=none;dashed=1;html=1;dashPattern=1 3;strokeWidth=2;fontSize=10;" parent="1" edge="1">
          
          <mxGeometry width="50" height="50" relative="1" as="geometry">
            
            <mxPoint x="187" y="276" as="sourcePoint" />
            
            <mxPoint x="187" y="64" as="targetPoint" />
            
          </mxGeometry>
          
        </mxCell>
        
        <mxCell id="V3RfW-ZcdMEoPT3UrXx7-2" value="RED-ZONE VLAN" style="text;html=1;strokeColor=none;fillColor=none;align=center;verticalAlign=top;whiteSpace=wrap;rounded=0;fontSize=12;fontStyle=1" parent="1" vertex="1">
          
          <mxGeometry x="64" y="64" width="120" height="60" as="geometry" />
          
        </mxCell>
        
        <mxCell id="V3RfW-ZcdMEoPT3UrXx7-3" value="" style="endArrow=none;dashed=1;html=1;dashPattern=1 3;strokeWidth=2;fontSize=10;" parent="1" edge="1">
          
          <mxGeometry width="50" height="50" relative="1" as="geometry">
            
            <mxPoint x="325" y="277" as="sourcePoint" />
            
            <mxPoint x="325" y="61" as="targetPoint" />
            
          </mxGeometry>
          
        </mxCell>
        
        <mxCell id="V3RfW-ZcdMEoPT3UrXx7-4" value="ORANGE-ZONE VLAN" style="text;html=1;strokeColor=none;fillColor=none;align=center;verticalAlign=top;whiteSpace=wrap;rounded=0;fontSize=12;fontStyle=1" parent="1" vertex="1">
          
          <mxGeometry x="459.5" y="64" width="169" height="56" as="geometry" />
          
        </mxCell>
        
        <mxCell id="V3RfW-ZcdMEoPT3UrXx7-5" value="GREEN-ZONE VLAN&lt;br&gt;&lt;span style=&quot;font-weight: normal&quot;&gt;RTSS &lt;br&gt;&lt;font style=&quot;font-size: 10px&quot;&gt;DIRECT or NATed?&lt;br&gt;Used as bastion host?&lt;br&gt;&lt;/font&gt;&lt;/span&gt;" style="text;html=1;strokeColor=none;fillColor=none;align=center;verticalAlign=top;whiteSpace=wrap;rounded=0;fontSize=12;fontStyle=1" parent="1" vertex="1">
          
          <mxGeometry x="195" y="64" width="120" height="96" as="geometry" />
          
        </mxCell>
        
        <mxCell id="1k6cD9tUeZ3WdY47XVeL-7" value="" style="shape=image;html=1;verticalAlign=top;verticalLabelPosition=bottom;labelBackgroundColor=#ffffff;imageAspect=0;aspect=fixed;image=https://cdn2.iconfinder.com/data/icons/stilllife/48x48/filesystems/gnome-fs-nfs.png;strokeColor=#000000;fillColor=#FFF4C3;fontSize=9;align=center;" parent="1" vertex="1">
          
          <mxGeometry x="688" y="154.82999999999998" width="32" height="32" as="geometry" />
          
        </mxCell>
        
      </root>
      
    </mxGraphModel>
    
  </diagram>
</mxfile>
